<?xml version="1.0" encoding="iso-8859-1" standalone="no"?> 
<?xml-stylesheet href="try.css" type="text/css"?> 
<svg xmlns="http://www.w3.org/2000/svg" xmlns:xlink="http://www.w3.org/1999/xlink" width="332.97456pt" height="169.5695pt" viewBox="4.22917 -170.14297 332.97456 169.5695 "> 
<g transform="translate(0, -0.57347 ) scale(1,-1) translate(0,170.14297 )"> 
<g>
 <g stroke="rgb(0.0%,0.0%,0.0%)">
 <g fill="rgb(0.0%,0.0%,0.0%)">
 <g stroke-width="0.4pt">
 <g>
 <path d="  " style="fill:none"/>
 <g>
 <g>
 <g transform="matrix(1.0,0.0,0.0,1.0,10.06071,-10.32072)">
 <g fill="rgb(0.0%,0.0%,0.0%)">
 <text style="stroke:none" transform="scale(1,-1) translate(4.16565,0)" text-anchor="middle"  font-size="10"> 
4</text> 
</g>
 </g>
 </g>
 </g>
 <path d="  " style="fill:none"/>
 <g>
 <g>
 <g transform="matrix(1.0,0.0,0.0,1.0,38.51346,-10.32072)">
 <g fill="rgb(0.0%,0.0%,0.0%)">
 <text style="stroke:none" transform="scale(1,-1) translate(4.16565,0)" text-anchor="middle"  font-size="10"> 
5</text> 
</g>
 </g>
 </g>
 </g>
 <path d="  " style="fill:none"/>
 <g>
 <g>
 <g transform="matrix(1.0,0.0,0.0,1.0,66.9662,-10.32072)">
 <g fill="rgb(0.0%,0.0%,0.0%)">
 <text style="stroke:none" transform="scale(1,-1) translate(4.16565,0)" text-anchor="middle"  font-size="10"> 
7</text> 
</g>
 </g>
 </g>
 </g>
 <path d="  " style="fill:none"/>
 <g>
 <g>
 <g transform="matrix(1.0,0.0,0.0,1.0,95.41895,-10.32072)">
 <g fill="rgb(0.0%,0.0%,0.0%)">
 <text style="stroke:none" transform="scale(1,-1) translate(4.16565,0)" text-anchor="middle"  font-size="10"> 
1</text> 
</g>
 </g>
 </g>
 </g>
 <path d="  " style="fill:none"/>
 <g>
 <g>
 <g transform="matrix(1.0,0.0,0.0,1.0,123.87169,-10.32072)">
 <g fill="rgb(0.0%,0.0%,0.0%)">
 <text style="stroke:none" transform="scale(1,-1) translate(4.16565,0)" text-anchor="middle"  font-size="10"> 
6</text> 
</g>
 </g>
 </g>
 </g>
 <path d="  " style="fill:none"/>
 <g>
 <g>
 <g transform="matrix(1.0,0.0,0.0,1.0,152.32443,-10.32072)">
 <g fill="rgb(0.0%,0.0%,0.0%)">
 <text style="stroke:none" transform="scale(1,-1) translate(4.16565,0)" text-anchor="middle"  font-size="10"> 
3</text> 
</g>
 </g>
 </g>
 </g>
 <path d="  " style="fill:none"/>
 <g>
 <g>
 <g transform="matrix(1.0,0.0,0.0,1.0,180.77718,-10.32072)">
 <g fill="rgb(0.0%,0.0%,0.0%)">
 <text style="stroke:none" transform="scale(1,-1) translate(4.16565,0)" text-anchor="middle"  font-size="10"> 
8</text> 
</g>
 </g>
 </g>
 </g>
 <path d="  " style="fill:none"/>
 <g>
 <g>
 <g transform="matrix(1.0,0.0,0.0,1.0,209.22992,-10.32072)">
 <g fill="rgb(0.0%,0.0%,0.0%)">
 <text style="stroke:none" transform="scale(1,-1) translate(4.16565,0)" text-anchor="middle"  font-size="10"> 
2</text> 
</g>
 </g>
 </g>
 </g>
 <path d="  " style="fill:none"/>
 <g>
 <g>
 <g transform="matrix(1.0,0.0,0.0,1.0,235.18327,-10.32072)">
 <g fill="rgb(0.0%,0.0%,0.0%)">
 <text style="stroke:none" transform="scale(1,-1) translate(6.66504,0)" text-anchor="middle"  font-size="10"> 
11</text> 
</g>
 </g>
 </g>
 </g>
 <path d="  " style="fill:none"/>
 <g>
 <g>
 <g transform="matrix(1.0,0.0,0.0,1.0,266.1354,-10.32072)">
 <g fill="rgb(0.0%,0.0%,0.0%)">
 <text style="stroke:none" transform="scale(1,-1) translate(4.16565,0)" text-anchor="middle"  font-size="10"> 
0</text> 
</g>
 </g>
 </g>
 </g>
 <path d="  " style="fill:none"/>
 <g>
 <g>
 <g transform="matrix(1.0,0.0,0.0,1.0,294.58815,-10.32072)">
 <g fill="rgb(0.0%,0.0%,0.0%)">
 <text style="stroke:none" transform="scale(1,-1) translate(4.16565,0)" text-anchor="middle"  font-size="10"> 
9</text> 
</g>
 </g>
 </g>
 </g>
 <path d="  " style="fill:none"/>
 <g>
 <g>
 <g transform="matrix(1.0,0.0,0.0,1.0,320.5415,-10.32072)">
 <g fill="rgb(0.0%,0.0%,0.0%)">
 <text style="stroke:none" transform="scale(1,-1) translate(6.66504,0)" text-anchor="middle"  font-size="10"> 
10</text> 
</g>
 </g>
 </g>
 </g>
 <path d="  " style="fill:none"/>
 <g>
 <g>
 <g transform="matrix(1.0,0.0,0.0,1.0,10.06071,-24.5471)">
 <g fill="rgb(0.0%,0.0%,0.0%)">
 <text style="stroke:none" transform="scale(1,-1) translate(4.16565,0)" text-anchor="middle"  font-size="10"> 
3</text> 
</g>
 </g>
 </g>
 </g>
 <path d="  " style="fill:none"/>
 <g>
 <g>
 <g transform="matrix(1.0,0.0,0.0,1.0,38.51346,-24.5471)">
 <g fill="rgb(0.0%,0.0%,0.0%)">
 <text style="stroke:none" transform="scale(1,-1) translate(4.16565,0)" text-anchor="middle"  font-size="10"> 
4</text> 
</g>
 </g>
 </g>
 </g>
 <path d="  " style="fill:none"/>
 <g>
 <g>
 <g transform="matrix(1.0,0.0,0.0,1.0,66.9662,-24.5471)">
 <g fill="rgb(0.0%,0.0%,0.0%)">
 <text style="stroke:none" transform="scale(1,-1) translate(4.16565,0)" text-anchor="middle"  font-size="10"> 
6</text> 
</g>
 </g>
 </g>
 </g>
 <path d="  " style="fill:none"/>
 <g>
 <g>
 <g transform="matrix(1.0,0.0,0.0,1.0,95.41895,-24.5471)">
 <g fill="rgb(0.0%,0.0%,0.0%)">
 <text style="stroke:none" transform="scale(1,-1) translate(4.16565,0)" text-anchor="middle"  font-size="10"> 
0</text> 
</g>
 </g>
 </g>
 </g>
 <path d="  " style="fill:none"/>
 <g>
 <g>
 <g transform="matrix(1.0,0.0,0.0,1.0,123.87169,-24.5471)">
 <g fill="rgb(0.0%,0.0%,0.0%)">
 <text style="stroke:none" transform="scale(1,-1) translate(4.16565,0)" text-anchor="middle"  font-size="10"> 
5</text> 
</g>
 </g>
 </g>
 </g>
 <path d="  " style="fill:none"/>
 <g>
 <g>
 <g transform="matrix(1.0,0.0,0.0,1.0,152.32443,-24.5471)">
 <g fill="rgb(0.0%,0.0%,0.0%)">
 <text style="stroke:none" transform="scale(1,-1) translate(4.16565,0)" text-anchor="middle"  font-size="10"> 
2</text> 
</g>
 </g>
 </g>
 </g>
 <path d="  " style="fill:none"/>
 <g>
 <g>
 <g transform="matrix(1.0,0.0,0.0,1.0,180.77718,-24.5471)">
 <g fill="rgb(0.0%,0.0%,0.0%)">
 <text style="stroke:none" transform="scale(1,-1) translate(4.16565,0)" text-anchor="middle"  font-size="10"> 
7</text> 
</g>
 </g>
 </g>
 </g>
 <path d="  " style="fill:none"/>
 <g>
 <g>
 <g transform="matrix(1.0,0.0,0.0,1.0,209.22992,-24.5471)">
 <g fill="rgb(0.0%,0.0%,0.0%)">
 <text style="stroke:none" transform="scale(1,-1) translate(4.16565,0)" text-anchor="middle"  font-size="10"> 
1</text> 
</g>
 </g>
 </g>
 </g>
 <path d="  " style="fill:none"/>
 <g>
 <g>
 <g transform="matrix(1.0,0.0,0.0,1.0,235.18327,-24.5471)">
 <g fill="rgb(0.0%,0.0%,0.0%)">
 <text style="stroke:none" transform="scale(1,-1) translate(6.66504,0)" text-anchor="middle"  font-size="10"> 
10</text> 
</g>
 </g>
 </g>
 </g>
 <path d="  " style="fill:none"/>
 <g>
 <g>
 <g transform="matrix(1.0,0.0,0.0,1.0,263.63602,-24.5471)">
 <g fill="rgb(0.0%,0.0%,0.0%)">
 <text style="stroke:none" transform="scale(1,-1) translate(6.66504,0)" text-anchor="middle"  font-size="10"> 
11</text> 
</g>
 </g>
 </g>
 </g>
 <path d="  " style="fill:none"/>
 <g>
 <g>
 <g transform="matrix(1.0,0.0,0.0,1.0,294.58815,-24.5471)">
 <g fill="rgb(0.0%,0.0%,0.0%)">
 <text style="stroke:none" transform="scale(1,-1) translate(4.16565,0)" text-anchor="middle"  font-size="10"> 
8</text> 
</g>
 </g>
 </g>
 </g>
 <path d="  " style="fill:none"/>
 <g>
 <g>
 <g transform="matrix(1.0,0.0,0.0,1.0,323.0409,-24.5471)">
 <g fill="rgb(0.0%,0.0%,0.0%)">
 <text style="stroke:none" transform="scale(1,-1) translate(4.16565,0)" text-anchor="middle"  font-size="10"> 
9</text> 
</g>
 </g>
 </g>
 </g>
 <path d="  " style="fill:none"/>
 <g>
 <g>
 <g transform="matrix(1.0,0.0,0.0,1.0,10.06071,-38.77347)">
 <g fill="rgb(0.0%,0.0%,0.0%)">
 <text style="stroke:none" transform="scale(1,-1) translate(4.16565,0)" text-anchor="middle"  font-size="10"> 
1</text> 
</g>
 </g>
 </g>
 </g>
 <path d="  " style="fill:none"/>
 <g>
 <g>
 <g transform="matrix(1.0,0.0,0.0,1.0,38.51346,-38.77347)">
 <g fill="rgb(0.0%,0.0%,0.0%)">
 <text style="stroke:none" transform="scale(1,-1) translate(4.16565,0)" text-anchor="middle"  font-size="10"> 
2</text> 
</g>
 </g>
 </g>
 </g>
 <path d="  " style="fill:none"/>
 <g>
 <g>
 <g transform="matrix(1.0,0.0,0.0,1.0,66.9662,-38.77347)">
 <g fill="rgb(0.0%,0.0%,0.0%)">
 <text style="stroke:none" transform="scale(1,-1) translate(4.16565,0)" text-anchor="middle"  font-size="10"> 
4</text> 
</g>
 </g>
 </g>
 </g>
 <path d="  " style="fill:none"/>
 <g>
 <g>
 <g transform="matrix(1.0,0.0,0.0,1.0,92.91956,-38.77347)">
 <g fill="rgb(0.0%,0.0%,0.0%)">
 <text style="stroke:none" transform="scale(1,-1) translate(6.66504,0)" text-anchor="middle"  font-size="10"> 
10</text> 
</g>
 </g>
 </g>
 </g>
 <path d="  " style="fill:none"/>
 <g>
 <g>
 <g transform="matrix(1.0,0.0,0.0,1.0,123.87169,-38.77347)">
 <g fill="rgb(0.0%,0.0%,0.0%)">
 <text style="stroke:none" transform="scale(1,-1) translate(4.16565,0)" text-anchor="middle"  font-size="10"> 
3</text> 
</g>
 </g>
 </g>
 </g>
 <path d="  " style="fill:none"/>
 <g>
 <g>
 <g transform="matrix(1.0,0.0,0.0,1.0,152.32443,-38.77347)">
 <g fill="rgb(0.0%,0.0%,0.0%)">
 <text style="stroke:none" transform="scale(1,-1) translate(4.16565,0)" text-anchor="middle"  font-size="10"> 
0</text> 
</g>
 </g>
 </g>
 </g>
 <path d="  " style="fill:none"/>
 <g>
 <g>
 <g transform="matrix(1.0,0.0,0.0,1.0,180.77718,-38.77347)">
 <g fill="rgb(0.0%,0.0%,0.0%)">
 <text style="stroke:none" transform="scale(1,-1) translate(4.16565,0)" text-anchor="middle"  font-size="10"> 
5</text> 
</g>
 </g>
 </g>
 </g>
 <path d="  " style="fill:none"/>
 <g>
 <g>
 <g transform="matrix(1.0,0.0,0.0,1.0,206.73053,-38.77347)">
 <g fill="rgb(0.0%,0.0%,0.0%)">
 <text style="stroke:none" transform="scale(1,-1) translate(6.66504,0)" text-anchor="middle"  font-size="10"> 
11</text> 
</g>
 </g>
 </g>
 </g>
 <path d="  " style="fill:none"/>
 <g>
 <g>
 <g transform="matrix(1.0,0.0,0.0,1.0,237.68266,-38.77347)">
 <g fill="rgb(0.0%,0.0%,0.0%)">
 <text style="stroke:none" transform="scale(1,-1) translate(4.16565,0)" text-anchor="middle"  font-size="10"> 
8</text> 
</g>
 </g>
 </g>
 </g>
 <path d="  " style="fill:none"/>
 <g>
 <g>
 <g transform="matrix(1.0,0.0,0.0,1.0,266.1354,-38.77347)">
 <g fill="rgb(0.0%,0.0%,0.0%)">
 <text style="stroke:none" transform="scale(1,-1) translate(4.16565,0)" text-anchor="middle"  font-size="10"> 
9</text> 
</g>
 </g>
 </g>
 </g>
 <path d="  " style="fill:none"/>
 <g>
 <g>
 <g transform="matrix(1.0,0.0,0.0,1.0,294.58815,-38.77347)">
 <g fill="rgb(0.0%,0.0%,0.0%)">
 <text style="stroke:none" transform="scale(1,-1) translate(4.16565,0)" text-anchor="middle"  font-size="10"> 
6</text> 
</g>
 </g>
 </g>
 </g>
 <path d="  " style="fill:none"/>
 <g>
 <g>
 <g transform="matrix(1.0,0.0,0.0,1.0,323.0409,-38.77347)">
 <g fill="rgb(0.0%,0.0%,0.0%)">
 <text style="stroke:none" transform="scale(1,-1) translate(4.16565,0)" text-anchor="middle"  font-size="10"> 
7</text> 
</g>
 </g>
 </g>
 </g>
 <path d="  " style="fill:none"/>
 <g>
 <g>
 <g transform="matrix(1.0,0.0,0.0,1.0,10.06071,-52.99985)">
 <g fill="rgb(0.0%,0.0%,0.0%)">
 <text style="stroke:none" transform="scale(1,-1) translate(4.16565,0)" text-anchor="middle"  font-size="10"> 
7</text> 
</g>
 </g>
 </g>
 </g>
 <path d="  " style="fill:none"/>
 <g>
 <g>
 <g transform="matrix(1.0,0.0,0.0,1.0,38.51346,-52.99985)">
 <g fill="rgb(0.0%,0.0%,0.0%)">
 <text style="stroke:none" transform="scale(1,-1) translate(4.16565,0)" text-anchor="middle"  font-size="10"> 
8</text> 
</g>
 </g>
 </g>
 </g>
 <path d="  " style="fill:none"/>
 <g>
 <g>
 <g transform="matrix(1.0,0.0,0.0,1.0,64.46681,-52.99985)">
 <g fill="rgb(0.0%,0.0%,0.0%)">
 <text style="stroke:none" transform="scale(1,-1) translate(6.66504,0)" text-anchor="middle"  font-size="10"> 
10</text> 
</g>
 </g>
 </g>
 </g>
 <path d="  " style="fill:none"/>
 <g>
 <g>
 <g transform="matrix(1.0,0.0,0.0,1.0,95.41895,-52.99985)">
 <g fill="rgb(0.0%,0.0%,0.0%)">
 <text style="stroke:none" transform="scale(1,-1) translate(4.16565,0)" text-anchor="middle"  font-size="10"> 
4</text> 
</g>
 </g>
 </g>
 </g>
 <path d="  " style="fill:none"/>
 <g>
 <g>
 <g transform="matrix(1.0,0.0,0.0,1.0,123.87169,-52.99985)">
 <g fill="rgb(0.0%,0.0%,0.0%)">
 <text style="stroke:none" transform="scale(1,-1) translate(4.16565,0)" text-anchor="middle"  font-size="10"> 
9</text> 
</g>
 </g>
 </g>
 </g>
 <path d="  " style="fill:none"/>
 <g>
 <g>
 <g transform="matrix(1.0,0.0,0.0,1.0,152.32443,-52.99985)">
 <g fill="rgb(0.0%,0.0%,0.0%)">
 <text style="stroke:none" transform="scale(1,-1) translate(4.16565,0)" text-anchor="middle"  font-size="10"> 
6</text> 
</g>
 </g>
 </g>
 </g>
 <path d="  " style="fill:none"/>
 <g>
 <g>
 <g transform="matrix(1.0,0.0,0.0,1.0,178.27779,-52.99985)">
 <g fill="rgb(0.0%,0.0%,0.0%)">
 <text style="stroke:none" transform="scale(1,-1) translate(6.66504,0)" text-anchor="middle"  font-size="10"> 
11</text> 
</g>
 </g>
 </g>
 </g>
 <path d="  " style="fill:none"/>
 <g>
 <g>
 <g transform="matrix(1.0,0.0,0.0,1.0,209.22992,-52.99985)">
 <g fill="rgb(0.0%,0.0%,0.0%)">
 <text style="stroke:none" transform="scale(1,-1) translate(4.16565,0)" text-anchor="middle"  font-size="10"> 
5</text> 
</g>
 </g>
 </g>
 </g>
 <path d="  " style="fill:none"/>
 <g>
 <g>
 <g transform="matrix(1.0,0.0,0.0,1.0,237.68266,-52.99985)">
 <g fill="rgb(0.0%,0.0%,0.0%)">
 <text style="stroke:none" transform="scale(1,-1) translate(4.16565,0)" text-anchor="middle"  font-size="10"> 
2</text> 
</g>
 </g>
 </g>
 </g>
 <path d="  " style="fill:none"/>
 <g>
 <g>
 <g transform="matrix(1.0,0.0,0.0,1.0,266.1354,-52.99985)">
 <g fill="rgb(0.0%,0.0%,0.0%)">
 <text style="stroke:none" transform="scale(1,-1) translate(4.16565,0)" text-anchor="middle"  font-size="10"> 
3</text> 
</g>
 </g>
 </g>
 </g>
 <path d="  " style="fill:none"/>
 <g>
 <g>
 <g transform="matrix(1.0,0.0,0.0,1.0,294.58815,-52.99985)">
 <g fill="rgb(0.0%,0.0%,0.0%)">
 <text style="stroke:none" transform="scale(1,-1) translate(4.16565,0)" text-anchor="middle"  font-size="10"> 
0</text> 
</g>
 </g>
 </g>
 </g>
 <path d="  " style="fill:none"/>
 <g>
 <g>
 <g transform="matrix(1.0,0.0,0.0,1.0,323.0409,-52.99985)">
 <g fill="rgb(0.0%,0.0%,0.0%)">
 <text style="stroke:none" transform="scale(1,-1) translate(4.16565,0)" text-anchor="middle"  font-size="10"> 
1</text> 
</g>
 </g>
 </g>
 </g>
 <path d="  " style="fill:none"/>
 <g>
 <g>
 <g transform="matrix(1.0,0.0,0.0,1.0,10.06071,-67.22621)">
 <g fill="rgb(0.0%,0.0%,0.0%)">
 <text style="stroke:none" transform="scale(1,-1) translate(4.16565,0)" text-anchor="middle"  font-size="10"> 
2</text> 
</g>
 </g>
 </g>
 </g>
 <path d="  " style="fill:none"/>
 <g>
 <g>
 <g transform="matrix(1.0,0.0,0.0,1.0,38.51346,-67.22621)">
 <g fill="rgb(0.0%,0.0%,0.0%)">
 <text style="stroke:none" transform="scale(1,-1) translate(4.16565,0)" text-anchor="middle"  font-size="10"> 
3</text> 
</g>
 </g>
 </g>
 </g>
 <path d="  " style="fill:none"/>
 <g>
 <g>
 <g transform="matrix(1.0,0.0,0.0,1.0,66.9662,-67.22621)">
 <g fill="rgb(0.0%,0.0%,0.0%)">
 <text style="stroke:none" transform="scale(1,-1) translate(4.16565,0)" text-anchor="middle"  font-size="10"> 
5</text> 
</g>
 </g>
 </g>
 </g>
 <path d="  " style="fill:none"/>
 <g>
 <g>
 <g transform="matrix(1.0,0.0,0.0,1.0,92.91956,-67.22621)">
 <g fill="rgb(0.0%,0.0%,0.0%)">
 <text style="stroke:none" transform="scale(1,-1) translate(6.66504,0)" text-anchor="middle"  font-size="10"> 
11</text> 
</g>
 </g>
 </g>
 </g>
 <path d="  " style="fill:none"/>
 <g>
 <g>
 <g transform="matrix(1.0,0.0,0.0,1.0,123.87169,-67.22621)">
 <g fill="rgb(0.0%,0.0%,0.0%)">
 <text style="stroke:none" transform="scale(1,-1) translate(4.16565,0)" text-anchor="middle"  font-size="10"> 
4</text> 
</g>
 </g>
 </g>
 </g>
 <path d="  " style="fill:none"/>
 <g>
 <g>
 <g transform="matrix(1.0,0.0,0.0,1.0,152.32443,-67.22621)">
 <g fill="rgb(0.0%,0.0%,0.0%)">
 <text style="stroke:none" transform="scale(1,-1) translate(4.16565,0)" text-anchor="middle"  font-size="10"> 
1</text> 
</g>
 </g>
 </g>
 </g>
 <path d="  " style="fill:none"/>
 <g>
 <g>
 <g transform="matrix(1.0,0.0,0.0,1.0,180.77718,-67.22621)">
 <g fill="rgb(0.0%,0.0%,0.0%)">
 <text style="stroke:none" transform="scale(1,-1) translate(4.16565,0)" text-anchor="middle"  font-size="10"> 
6</text> 
</g>
 </g>
 </g>
 </g>
 <path d="  " style="fill:none"/>
 <g>
 <g>
 <g transform="matrix(1.0,0.0,0.0,1.0,209.22992,-67.22621)">
 <g fill="rgb(0.0%,0.0%,0.0%)">
 <text style="stroke:none" transform="scale(1,-1) translate(4.16565,0)" text-anchor="middle"  font-size="10"> 
0</text> 
</g>
 </g>
 </g>
 </g>
 <path d="  " style="fill:none"/>
 <g>
 <g>
 <g transform="matrix(1.0,0.0,0.0,1.0,237.68266,-67.22621)">
 <g fill="rgb(0.0%,0.0%,0.0%)">
 <text style="stroke:none" transform="scale(1,-1) translate(4.16565,0)" text-anchor="middle"  font-size="10"> 
9</text> 
</g>
 </g>
 </g>
 </g>
 <path d="  " style="fill:none"/>
 <g>
 <g>
 <g transform="matrix(1.0,0.0,0.0,1.0,263.63602,-67.22621)">
 <g fill="rgb(0.0%,0.0%,0.0%)">
 <text style="stroke:none" transform="scale(1,-1) translate(6.66504,0)" text-anchor="middle"  font-size="10"> 
10</text> 
</g>
 </g>
 </g>
 </g>
 <path d="  " style="fill:none"/>
 <g>
 <g>
 <g transform="matrix(1.0,0.0,0.0,1.0,294.58815,-67.22621)">
 <g fill="rgb(0.0%,0.0%,0.0%)">
 <text style="stroke:none" transform="scale(1,-1) translate(4.16565,0)" text-anchor="middle"  font-size="10"> 
7</text> 
</g>
 </g>
 </g>
 </g>
 <path d="  " style="fill:none"/>
 <g>
 <g>
 <g transform="matrix(1.0,0.0,0.0,1.0,323.0409,-67.22621)">
 <g fill="rgb(0.0%,0.0%,0.0%)">
 <text style="stroke:none" transform="scale(1,-1) translate(4.16565,0)" text-anchor="middle"  font-size="10"> 
8</text> 
</g>
 </g>
 </g>
 </g>
 <path d="  " style="fill:none"/>
 <g>
 <g>
 <g transform="matrix(1.0,0.0,0.0,1.0,10.06071,-81.45259)">
 <g fill="rgb(0.0%,0.0%,0.0%)">
 <text style="stroke:none" transform="scale(1,-1) translate(4.16565,0)" text-anchor="middle"  font-size="10"> 
5</text> 
</g>
 </g>
 </g>
 </g>
 <path d="  " style="fill:none"/>
 <g>
 <g>
 <g transform="matrix(1.0,0.0,0.0,1.0,38.51346,-81.45259)">
 <g fill="rgb(0.0%,0.0%,0.0%)">
 <text style="stroke:none" transform="scale(1,-1) translate(4.16565,0)" text-anchor="middle"  font-size="10"> 
6</text> 
</g>
 </g>
 </g>
 </g>
 <path d="  " style="fill:none"/>
 <g>
 <g>
 <g transform="matrix(1.0,0.0,0.0,1.0,66.9662,-81.45259)">
 <g fill="rgb(0.0%,0.0%,0.0%)">
 <text style="stroke:none" transform="scale(1,-1) translate(4.16565,0)" text-anchor="middle"  font-size="10"> 
8</text> 
</g>
 </g>
 </g>
 </g>
 <path d="  " style="fill:none"/>
 <g>
 <g>
 <g transform="matrix(1.0,0.0,0.0,1.0,95.41895,-81.45259)">
 <g fill="rgb(0.0%,0.0%,0.0%)">
 <text style="stroke:none" transform="scale(1,-1) translate(4.16565,0)" text-anchor="middle"  font-size="10"> 
2</text> 
</g>
 </g>
 </g>
 </g>
 <path d="  " style="fill:none"/>
 <g>
 <g>
 <g transform="matrix(1.0,0.0,0.0,1.0,123.87169,-81.45259)">
 <g fill="rgb(0.0%,0.0%,0.0%)">
 <text style="stroke:none" transform="scale(1,-1) translate(4.16565,0)" text-anchor="middle"  font-size="10"> 
7</text> 
</g>
 </g>
 </g>
 </g>
 <path d="  " style="fill:none"/>
 <g>
 <g>
 <g transform="matrix(1.0,0.0,0.0,1.0,152.32443,-81.45259)">
 <g fill="rgb(0.0%,0.0%,0.0%)">
 <text style="stroke:none" transform="scale(1,-1) translate(4.16565,0)" text-anchor="middle"  font-size="10"> 
4</text> 
</g>
 </g>
 </g>
 </g>
 <path d="  " style="fill:none"/>
 <g>
 <g>
 <g transform="matrix(1.0,0.0,0.0,1.0,180.77718,-81.45259)">
 <g fill="rgb(0.0%,0.0%,0.0%)">
 <text style="stroke:none" transform="scale(1,-1) translate(4.16565,0)" text-anchor="middle"  font-size="10"> 
9</text> 
</g>
 </g>
 </g>
 </g>
 <path d="  " style="fill:none"/>
 <g>
 <g>
 <g transform="matrix(1.0,0.0,0.0,1.0,209.22992,-81.45259)">
 <g fill="rgb(0.0%,0.0%,0.0%)">
 <text style="stroke:none" transform="scale(1,-1) translate(4.16565,0)" text-anchor="middle"  font-size="10"> 
3</text> 
</g>
 </g>
 </g>
 </g>
 <path d="  " style="fill:none"/>
 <g>
 <g>
 <g transform="matrix(1.0,0.0,0.0,1.0,237.68266,-81.45259)">
 <g fill="rgb(0.0%,0.0%,0.0%)">
 <text style="stroke:none" transform="scale(1,-1) translate(4.16565,0)" text-anchor="middle"  font-size="10"> 
0</text> 
</g>
 </g>
 </g>
 </g>
 <path d="  " style="fill:none"/>
 <g>
 <g>
 <g transform="matrix(1.0,0.0,0.0,1.0,266.1354,-81.45259)">
 <g fill="rgb(0.0%,0.0%,0.0%)">
 <text style="stroke:none" transform="scale(1,-1) translate(4.16565,0)" text-anchor="middle"  font-size="10"> 
1</text> 
</g>
 </g>
 </g>
 </g>
 <path d="  " style="fill:none"/>
 <g>
 <g>
 <g transform="matrix(1.0,0.0,0.0,1.0,292.08876,-81.45259)">
 <g fill="rgb(0.0%,0.0%,0.0%)">
 <text style="stroke:none" transform="scale(1,-1) translate(6.66504,0)" text-anchor="middle"  font-size="10"> 
10</text> 
</g>
 </g>
 </g>
 </g>
 <path d="  " style="fill:none"/>
 <g>
 <g>
 <g transform="matrix(1.0,0.0,0.0,1.0,320.5415,-81.45259)">
 <g fill="rgb(0.0%,0.0%,0.0%)">
 <text style="stroke:none" transform="scale(1,-1) translate(6.66504,0)" text-anchor="middle"  font-size="10"> 
11</text> 
</g>
 </g>
 </g>
 </g>
 <path d="  " style="fill:none"/>
 <g>
 <g>
 <g transform="matrix(1.0,0.0,0.0,1.0,10.06071,-95.67896)">
 <g fill="rgb(0.0%,0.0%,0.0%)">
 <text style="stroke:none" transform="scale(1,-1) translate(4.16565,0)" text-anchor="middle"  font-size="10"> 
0</text> 
</g>
 </g>
 </g>
 </g>
 <path d="  " style="fill:none"/>
 <g>
 <g>
 <g transform="matrix(1.0,0.0,0.0,1.0,38.51346,-95.67896)">
 <g fill="rgb(0.0%,0.0%,0.0%)">
 <text style="stroke:none" transform="scale(1,-1) translate(4.16565,0)" text-anchor="middle"  font-size="10"> 
1</text> 
</g>
 </g>
 </g>
 </g>
 <path d="  " style="fill:none"/>
 <g>
 <g>
 <g transform="matrix(1.0,0.0,0.0,1.0,66.9662,-95.67896)">
 <g fill="rgb(0.0%,0.0%,0.0%)">
 <text style="stroke:none" transform="scale(1,-1) translate(4.16565,0)" text-anchor="middle"  font-size="10"> 
3</text> 
</g>
 </g>
 </g>
 </g>
 <path d="  " style="fill:none"/>
 <g>
 <g>
 <g transform="matrix(1.0,0.0,0.0,1.0,95.41895,-95.67896)">
 <g fill="rgb(0.0%,0.0%,0.0%)">
 <text style="stroke:none" transform="scale(1,-1) translate(4.16565,0)" text-anchor="middle"  font-size="10"> 
9</text> 
</g>
 </g>
 </g>
 </g>
 <path d="  " style="fill:none"/>
 <g>
 <g>
 <g transform="matrix(1.0,0.0,0.0,1.0,123.87169,-95.67896)">
 <g fill="rgb(0.0%,0.0%,0.0%)">
 <text style="stroke:none" transform="scale(1,-1) translate(4.16565,0)" text-anchor="middle"  font-size="10"> 
2</text> 
</g>
 </g>
 </g>
 </g>
 <path d="  " style="fill:none"/>
 <g>
 <g>
 <g transform="matrix(1.0,0.0,0.0,1.0,149.82504,-95.67896)">
 <g fill="rgb(0.0%,0.0%,0.0%)">
 <text style="stroke:none" transform="scale(1,-1) translate(6.66504,0)" text-anchor="middle"  font-size="10"> 
11</text> 
</g>
 </g>
 </g>
 </g>
 <path d="  " style="fill:none"/>
 <g>
 <g>
 <g transform="matrix(1.0,0.0,0.0,1.0,180.77718,-95.67896)">
 <g fill="rgb(0.0%,0.0%,0.0%)">
 <text style="stroke:none" transform="scale(1,-1) translate(4.16565,0)" text-anchor="middle"  font-size="10"> 
4</text> 
</g>
 </g>
 </g>
 </g>
 <path d="  " style="fill:none"/>
 <g>
 <g>
 <g transform="matrix(1.0,0.0,0.0,1.0,206.73053,-95.67896)">
 <g fill="rgb(0.0%,0.0%,0.0%)">
 <text style="stroke:none" transform="scale(1,-1) translate(6.66504,0)" text-anchor="middle"  font-size="10"> 
10</text> 
</g>
 </g>
 </g>
 </g>
 <path d="  " style="fill:none"/>
 <g>
 <g>
 <g transform="matrix(1.0,0.0,0.0,1.0,237.68266,-95.67896)">
 <g fill="rgb(0.0%,0.0%,0.0%)">
 <text style="stroke:none" transform="scale(1,-1) translate(4.16565,0)" text-anchor="middle"  font-size="10"> 
7</text> 
</g>
 </g>
 </g>
 </g>
 <path d="  " style="fill:none"/>
 <g>
 <g>
 <g transform="matrix(1.0,0.0,0.0,1.0,266.1354,-95.67896)">
 <g fill="rgb(0.0%,0.0%,0.0%)">
 <text style="stroke:none" transform="scale(1,-1) translate(4.16565,0)" text-anchor="middle"  font-size="10"> 
8</text> 
</g>
 </g>
 </g>
 </g>
 <path d="  " style="fill:none"/>
 <g>
 <g>
 <g transform="matrix(1.0,0.0,0.0,1.0,294.58815,-95.67896)">
 <g fill="rgb(0.0%,0.0%,0.0%)">
 <text style="stroke:none" transform="scale(1,-1) translate(4.16565,0)" text-anchor="middle"  font-size="10"> 
5</text> 
</g>
 </g>
 </g>
 </g>
 <path d="  " style="fill:none"/>
 <g>
 <g>
 <g transform="matrix(1.0,0.0,0.0,1.0,323.0409,-95.67896)">
 <g fill="rgb(0.0%,0.0%,0.0%)">
 <text style="stroke:none" transform="scale(1,-1) translate(4.16565,0)" text-anchor="middle"  font-size="10"> 
6</text> 
</g>
 </g>
 </g>
 </g>
 <path d="  " style="fill:none"/>
 <g>
 <g>
 <g transform="matrix(1.0,0.0,0.0,1.0,10.06071,-109.90533)">
 <g fill="rgb(0.0%,0.0%,0.0%)">
 <text style="stroke:none" transform="scale(1,-1) translate(4.16565,0)" text-anchor="middle"  font-size="10"> 
6</text> 
</g>
 </g>
 </g>
 </g>
 <path d="  " style="fill:none"/>
 <g>
 <g>
 <g transform="matrix(1.0,0.0,0.0,1.0,38.51346,-109.90533)">
 <g fill="rgb(0.0%,0.0%,0.0%)">
 <text style="stroke:none" transform="scale(1,-1) translate(4.16565,0)" text-anchor="middle"  font-size="10"> 
7</text> 
</g>
 </g>
 </g>
 </g>
 <path d="  " style="fill:none"/>
 <g>
 <g>
 <g transform="matrix(1.0,0.0,0.0,1.0,66.9662,-109.90533)">
 <g fill="rgb(0.0%,0.0%,0.0%)">
 <text style="stroke:none" transform="scale(1,-1) translate(4.16565,0)" text-anchor="middle"  font-size="10"> 
9</text> 
</g>
 </g>
 </g>
 </g>
 <path d="  " style="fill:none"/>
 <g>
 <g>
 <g transform="matrix(1.0,0.0,0.0,1.0,95.41895,-109.90533)">
 <g fill="rgb(0.0%,0.0%,0.0%)">
 <text style="stroke:none" transform="scale(1,-1) translate(4.16565,0)" text-anchor="middle"  font-size="10"> 
3</text> 
</g>
 </g>
 </g>
 </g>
 <path d="  " style="fill:none"/>
 <g>
 <g>
 <g transform="matrix(1.0,0.0,0.0,1.0,123.87169,-109.90533)">
 <g fill="rgb(0.0%,0.0%,0.0%)">
 <text style="stroke:none" transform="scale(1,-1) translate(4.16565,0)" text-anchor="middle"  font-size="10"> 
8</text> 
</g>
 </g>
 </g>
 </g>
 <path d="  " style="fill:none"/>
 <g>
 <g>
 <g transform="matrix(1.0,0.0,0.0,1.0,152.32443,-109.90533)">
 <g fill="rgb(0.0%,0.0%,0.0%)">
 <text style="stroke:none" transform="scale(1,-1) translate(4.16565,0)" text-anchor="middle"  font-size="10"> 
5</text> 
</g>
 </g>
 </g>
 </g>
 <path d="  " style="fill:none"/>
 <g>
 <g>
 <g transform="matrix(1.0,0.0,0.0,1.0,178.27779,-109.90533)">
 <g fill="rgb(0.0%,0.0%,0.0%)">
 <text style="stroke:none" transform="scale(1,-1) translate(6.66504,0)" text-anchor="middle"  font-size="10"> 
10</text> 
</g>
 </g>
 </g>
 </g>
 <path d="  " style="fill:none"/>
 <g>
 <g>
 <g transform="matrix(1.0,0.0,0.0,1.0,209.22992,-109.90533)">
 <g fill="rgb(0.0%,0.0%,0.0%)">
 <text style="stroke:none" transform="scale(1,-1) translate(4.16565,0)" text-anchor="middle"  font-size="10"> 
4</text> 
</g>
 </g>
 </g>
 </g>
 <path d="  " style="fill:none"/>
 <g>
 <g>
 <g transform="matrix(1.0,0.0,0.0,1.0,237.68266,-109.90533)">
 <g fill="rgb(0.0%,0.0%,0.0%)">
 <text style="stroke:none" transform="scale(1,-1) translate(4.16565,0)" text-anchor="middle"  font-size="10"> 
1</text> 
</g>
 </g>
 </g>
 </g>
 <path d="  " style="fill:none"/>
 <g>
 <g>
 <g transform="matrix(1.0,0.0,0.0,1.0,266.1354,-109.90533)">
 <g fill="rgb(0.0%,0.0%,0.0%)">
 <text style="stroke:none" transform="scale(1,-1) translate(4.16565,0)" text-anchor="middle"  font-size="10"> 
2</text> 
</g>
 </g>
 </g>
 </g>
 <path d="  " style="fill:none"/>
 <g>
 <g>
 <g transform="matrix(1.0,0.0,0.0,1.0,292.08876,-109.90533)">
 <g fill="rgb(0.0%,0.0%,0.0%)">
 <text style="stroke:none" transform="scale(1,-1) translate(6.66504,0)" text-anchor="middle"  font-size="10"> 
11</text> 
</g>
 </g>
 </g>
 </g>
 <path d="  " style="fill:none"/>
 <g>
 <g>
 <g transform="matrix(1.0,0.0,0.0,1.0,323.0409,-109.90533)">
 <g fill="rgb(0.0%,0.0%,0.0%)">
 <text style="stroke:none" transform="scale(1,-1) translate(4.16565,0)" text-anchor="middle"  font-size="10"> 
0</text> 
</g>
 </g>
 </g>
 </g>
 <path d="  " style="fill:none"/>
 <g>
 <g>
 <g transform="matrix(1.0,0.0,0.0,1.0,10.06071,-124.1317)">
 <g fill="rgb(0.0%,0.0%,0.0%)">
 <text style="stroke:none" transform="scale(1,-1) translate(4.16565,0)" text-anchor="middle"  font-size="10"> 
9</text> 
</g>
 </g>
 </g>
 </g>
 <path d="  " style="fill:none"/>
 <g>
 <g>
 <g transform="matrix(1.0,0.0,0.0,1.0,36.01407,-124.1317)">
 <g fill="rgb(0.0%,0.0%,0.0%)">
 <text style="stroke:none" transform="scale(1,-1) translate(6.66504,0)" text-anchor="middle"  font-size="10"> 
10</text> 
</g>
 </g>
 </g>
 </g>
 <path d="  " style="fill:none"/>
 <g>
 <g>
 <g transform="matrix(1.0,0.0,0.0,1.0,66.9662,-124.1317)">
 <g fill="rgb(0.0%,0.0%,0.0%)">
 <text style="stroke:none" transform="scale(1,-1) translate(4.16565,0)" text-anchor="middle"  font-size="10"> 
0</text> 
</g>
 </g>
 </g>
 </g>
 <path d="  " style="fill:none"/>
 <g>
 <g>
 <g transform="matrix(1.0,0.0,0.0,1.0,95.41895,-124.1317)">
 <g fill="rgb(0.0%,0.0%,0.0%)">
 <text style="stroke:none" transform="scale(1,-1) translate(4.16565,0)" text-anchor="middle"  font-size="10"> 
6</text> 
</g>
 </g>
 </g>
 </g>
 <path d="  " style="fill:none"/>
 <g>
 <g>
 <g transform="matrix(1.0,0.0,0.0,1.0,121.3723,-124.1317)">
 <g fill="rgb(0.0%,0.0%,0.0%)">
 <text style="stroke:none" transform="scale(1,-1) translate(6.66504,0)" text-anchor="middle"  font-size="10"> 
11</text> 
</g>
 </g>
 </g>
 </g>
 <path d="  " style="fill:none"/>
 <g>
 <g>
 <g transform="matrix(1.0,0.0,0.0,1.0,152.32443,-124.1317)">
 <g fill="rgb(0.0%,0.0%,0.0%)">
 <text style="stroke:none" transform="scale(1,-1) translate(4.16565,0)" text-anchor="middle"  font-size="10"> 
8</text> 
</g>
 </g>
 </g>
 </g>
 <path d="  " style="fill:none"/>
 <g>
 <g>
 <g transform="matrix(1.0,0.0,0.0,1.0,180.77718,-124.1317)">
 <g fill="rgb(0.0%,0.0%,0.0%)">
 <text style="stroke:none" transform="scale(1,-1) translate(4.16565,0)" text-anchor="middle"  font-size="10"> 
1</text> 
</g>
 </g>
 </g>
 </g>
 <path d="  " style="fill:none"/>
 <g>
 <g>
 <g transform="matrix(1.0,0.0,0.0,1.0,209.22992,-124.1317)">
 <g fill="rgb(0.0%,0.0%,0.0%)">
 <text style="stroke:none" transform="scale(1,-1) translate(4.16565,0)" text-anchor="middle"  font-size="10"> 
7</text> 
</g>
 </g>
 </g>
 </g>
 <path d="  " style="fill:none"/>
 <g>
 <g>
 <g transform="matrix(1.0,0.0,0.0,1.0,237.68266,-124.1317)">
 <g fill="rgb(0.0%,0.0%,0.0%)">
 <text style="stroke:none" transform="scale(1,-1) translate(4.16565,0)" text-anchor="middle"  font-size="10"> 
4</text> 
</g>
 </g>
 </g>
 </g>
 <path d="  " style="fill:none"/>
 <g>
 <g>
 <g transform="matrix(1.0,0.0,0.0,1.0,266.1354,-124.1317)">
 <g fill="rgb(0.0%,0.0%,0.0%)">
 <text style="stroke:none" transform="scale(1,-1) translate(4.16565,0)" text-anchor="middle"  font-size="10"> 
5</text> 
</g>
 </g>
 </g>
 </g>
 <path d="  " style="fill:none"/>
 <g>
 <g>
 <g transform="matrix(1.0,0.0,0.0,1.0,294.58815,-124.1317)">
 <g fill="rgb(0.0%,0.0%,0.0%)">
 <text style="stroke:none" transform="scale(1,-1) translate(4.16565,0)" text-anchor="middle"  font-size="10"> 
2</text> 
</g>
 </g>
 </g>
 </g>
 <path d="  " style="fill:none"/>
 <g>
 <g>
 <g transform="matrix(1.0,0.0,0.0,1.0,323.0409,-124.1317)">
 <g fill="rgb(0.0%,0.0%,0.0%)">
 <text style="stroke:none" transform="scale(1,-1) translate(4.16565,0)" text-anchor="middle"  font-size="10"> 
3</text> 
</g>
 </g>
 </g>
 </g>
 <path d="  " style="fill:none"/>
 <g>
 <g>
 <g transform="matrix(1.0,0.0,0.0,1.0,10.06071,-138.35808)">
 <g fill="rgb(0.0%,0.0%,0.0%)">
 <text style="stroke:none" transform="scale(1,-1) translate(4.16565,0)" text-anchor="middle"  font-size="10"> 
8</text> 
</g>
 </g>
 </g>
 </g>
 <path d="  " style="fill:none"/>
 <g>
 <g>
 <g transform="matrix(1.0,0.0,0.0,1.0,38.51346,-138.35808)">
 <g fill="rgb(0.0%,0.0%,0.0%)">
 <text style="stroke:none" transform="scale(1,-1) translate(4.16565,0)" text-anchor="middle"  font-size="10"> 
9</text> 
</g>
 </g>
 </g>
 </g>
 <path d="  " style="fill:none"/>
 <g>
 <g>
 <g transform="matrix(1.0,0.0,0.0,1.0,64.46681,-138.35808)">
 <g fill="rgb(0.0%,0.0%,0.0%)">
 <text style="stroke:none" transform="scale(1,-1) translate(6.66504,0)" text-anchor="middle"  font-size="10"> 
11</text> 
</g>
 </g>
 </g>
 </g>
 <path d="  " style="fill:none"/>
 <g>
 <g>
 <g transform="matrix(1.0,0.0,0.0,1.0,95.41895,-138.35808)">
 <g fill="rgb(0.0%,0.0%,0.0%)">
 <text style="stroke:none" transform="scale(1,-1) translate(4.16565,0)" text-anchor="middle"  font-size="10"> 
5</text> 
</g>
 </g>
 </g>
 </g>
 <path d="  " style="fill:none"/>
 <g>
 <g>
 <g transform="matrix(1.0,0.0,0.0,1.0,121.3723,-138.35808)">
 <g fill="rgb(0.0%,0.0%,0.0%)">
 <text style="stroke:none" transform="scale(1,-1) translate(6.66504,0)" text-anchor="middle"  font-size="10"> 
10</text> 
</g>
 </g>
 </g>
 </g>
 <path d="  " style="fill:none"/>
 <g>
 <g>
 <g transform="matrix(1.0,0.0,0.0,1.0,152.32443,-138.35808)">
 <g fill="rgb(0.0%,0.0%,0.0%)">
 <text style="stroke:none" transform="scale(1,-1) translate(4.16565,0)" text-anchor="middle"  font-size="10"> 
7</text> 
</g>
 </g>
 </g>
 </g>
 <path d="  " style="fill:none"/>
 <g>
 <g>
 <g transform="matrix(1.0,0.0,0.0,1.0,180.77718,-138.35808)">
 <g fill="rgb(0.0%,0.0%,0.0%)">
 <text style="stroke:none" transform="scale(1,-1) translate(4.16565,0)" text-anchor="middle"  font-size="10"> 
0</text> 
</g>
 </g>
 </g>
 </g>
 <path d="  " style="fill:none"/>
 <g>
 <g>
 <g transform="matrix(1.0,0.0,0.0,1.0,209.22992,-138.35808)">
 <g fill="rgb(0.0%,0.0%,0.0%)">
 <text style="stroke:none" transform="scale(1,-1) translate(4.16565,0)" text-anchor="middle"  font-size="10"> 
6</text> 
</g>
 </g>
 </g>
 </g>
 <path d="  " style="fill:none"/>
 <g>
 <g>
 <g transform="matrix(1.0,0.0,0.0,1.0,237.68266,-138.35808)">
 <g fill="rgb(0.0%,0.0%,0.0%)">
 <text style="stroke:none" transform="scale(1,-1) translate(4.16565,0)" text-anchor="middle"  font-size="10"> 
3</text> 
</g>
 </g>
 </g>
 </g>
 <path d="  " style="fill:none"/>
 <g>
 <g>
 <g transform="matrix(1.0,0.0,0.0,1.0,266.1354,-138.35808)">
 <g fill="rgb(0.0%,0.0%,0.0%)">
 <text style="stroke:none" transform="scale(1,-1) translate(4.16565,0)" text-anchor="middle"  font-size="10"> 
4</text> 
</g>
 </g>
 </g>
 </g>
 <path d="  " style="fill:none"/>
 <g>
 <g>
 <g transform="matrix(1.0,0.0,0.0,1.0,294.58815,-138.35808)">
 <g fill="rgb(0.0%,0.0%,0.0%)">
 <text style="stroke:none" transform="scale(1,-1) translate(4.16565,0)" text-anchor="middle"  font-size="10"> 
1</text> 
</g>
 </g>
 </g>
 </g>
 <path d="  " style="fill:none"/>
 <g>
 <g>
 <g transform="matrix(1.0,0.0,0.0,1.0,323.0409,-138.35808)">
 <g fill="rgb(0.0%,0.0%,0.0%)">
 <text style="stroke:none" transform="scale(1,-1) translate(4.16565,0)" text-anchor="middle"  font-size="10"> 
2</text> 
</g>
 </g>
 </g>
 </g>
 <path d="  " style="fill:none"/>
 <g>
 <g>
 <g transform="matrix(1.0,0.0,0.0,1.0,7.56133,-152.58444)">
 <g fill="rgb(0.0%,0.0%,0.0%)">
 <text style="stroke:none" transform="scale(1,-1) translate(6.66504,0)" text-anchor="middle"  font-size="10"> 
11</text> 
</g>
 </g>
 </g>
 </g>
 <path d="  " style="fill:none"/>
 <g>
 <g>
 <g transform="matrix(1.0,0.0,0.0,1.0,38.51346,-152.58444)">
 <g fill="rgb(0.0%,0.0%,0.0%)">
 <text style="stroke:none" transform="scale(1,-1) translate(4.16565,0)" text-anchor="middle"  font-size="10"> 
0</text> 
</g>
 </g>
 </g>
 </g>
 <path d="  " style="fill:none"/>
 <g>
 <g>
 <g transform="matrix(1.0,0.0,0.0,1.0,66.9662,-152.58444)">
 <g fill="rgb(0.0%,0.0%,0.0%)">
 <text style="stroke:none" transform="scale(1,-1) translate(4.16565,0)" text-anchor="middle"  font-size="10"> 
2</text> 
</g>
 </g>
 </g>
 </g>
 <path d="  " style="fill:none"/>
 <g>
 <g>
 <g transform="matrix(1.0,0.0,0.0,1.0,95.41895,-152.58444)">
 <g fill="rgb(0.0%,0.0%,0.0%)">
 <text style="stroke:none" transform="scale(1,-1) translate(4.16565,0)" text-anchor="middle"  font-size="10"> 
8</text> 
</g>
 </g>
 </g>
 </g>
 <path d="  " style="fill:none"/>
 <g>
 <g>
 <g transform="matrix(1.0,0.0,0.0,1.0,123.87169,-152.58444)">
 <g fill="rgb(0.0%,0.0%,0.0%)">
 <text style="stroke:none" transform="scale(1,-1) translate(4.16565,0)" text-anchor="middle"  font-size="10"> 
1</text> 
</g>
 </g>
 </g>
 </g>
 <path d="  " style="fill:none"/>
 <g>
 <g>
 <g transform="matrix(1.0,0.0,0.0,1.0,149.82504,-152.58444)">
 <g fill="rgb(0.0%,0.0%,0.0%)">
 <text style="stroke:none" transform="scale(1,-1) translate(6.66504,0)" text-anchor="middle"  font-size="10"> 
10</text> 
</g>
 </g>
 </g>
 </g>
 <path d="  " style="fill:none"/>
 <g>
 <g>
 <g transform="matrix(1.0,0.0,0.0,1.0,180.77718,-152.58444)">
 <g fill="rgb(0.0%,0.0%,0.0%)">
 <text style="stroke:none" transform="scale(1,-1) translate(4.16565,0)" text-anchor="middle"  font-size="10"> 
3</text> 
</g>
 </g>
 </g>
 </g>
 <path d="  " style="fill:none"/>
 <g>
 <g>
 <g transform="matrix(1.0,0.0,0.0,1.0,209.22992,-152.58444)">
 <g fill="rgb(0.0%,0.0%,0.0%)">
 <text style="stroke:none" transform="scale(1,-1) translate(4.16565,0)" text-anchor="middle"  font-size="10"> 
9</text> 
</g>
 </g>
 </g>
 </g>
 <path d="  " style="fill:none"/>
 <g>
 <g>
 <g transform="matrix(1.0,0.0,0.0,1.0,237.68266,-152.58444)">
 <g fill="rgb(0.0%,0.0%,0.0%)">
 <text style="stroke:none" transform="scale(1,-1) translate(4.16565,0)" text-anchor="middle"  font-size="10"> 
6</text> 
</g>
 </g>
 </g>
 </g>
 <path d="  " style="fill:none"/>
 <g>
 <g>
 <g transform="matrix(1.0,0.0,0.0,1.0,266.1354,-152.58444)">
 <g fill="rgb(0.0%,0.0%,0.0%)">
 <text style="stroke:none" transform="scale(1,-1) translate(4.16565,0)" text-anchor="middle"  font-size="10"> 
7</text> 
</g>
 </g>
 </g>
 </g>
 <path d="  " style="fill:none"/>
 <g>
 <g>
 <g transform="matrix(1.0,0.0,0.0,1.0,294.58815,-152.58444)">
 <g fill="rgb(0.0%,0.0%,0.0%)">
 <text style="stroke:none" transform="scale(1,-1) translate(4.16565,0)" text-anchor="middle"  font-size="10"> 
4</text> 
</g>
 </g>
 </g>
 </g>
 <path d="  " style="fill:none"/>
 <g>
 <g>
 <g transform="matrix(1.0,0.0,0.0,1.0,323.0409,-152.58444)">
 <g fill="rgb(0.0%,0.0%,0.0%)">
 <text style="stroke:none" transform="scale(1,-1) translate(4.16565,0)" text-anchor="middle"  font-size="10"> 
5</text> 
</g>
 </g>
 </g>
 </g>
 <path d="  " style="fill:none"/>
 <g>
 <g>
 <g transform="matrix(1.0,0.0,0.0,1.0,7.56133,-166.81082)">
 <g fill="rgb(0.0%,0.0%,0.0%)">
 <text style="stroke:none" transform="scale(1,-1) translate(6.66504,0)" text-anchor="middle"  font-size="10"> 
10</text> 
</g>
 </g>
 </g>
 </g>
 <path d="  " style="fill:none"/>
 <g>
 <g>
 <g transform="matrix(1.0,0.0,0.0,1.0,36.01407,-166.81082)">
 <g fill="rgb(0.0%,0.0%,0.0%)">
 <text style="stroke:none" transform="scale(1,-1) translate(6.66504,0)" text-anchor="middle"  font-size="10"> 
11</text> 
</g>
 </g>
 </g>
 </g>
 <path d="  " style="fill:none"/>
 <g>
 <g>
 <g transform="matrix(1.0,0.0,0.0,1.0,66.9662,-166.81082)">
 <g fill="rgb(0.0%,0.0%,0.0%)">
 <text style="stroke:none" transform="scale(1,-1) translate(4.16565,0)" text-anchor="middle"  font-size="10"> 
1</text> 
</g>
 </g>
 </g>
 </g>
 <path d="  " style="fill:none"/>
 <g>
 <g>
 <g transform="matrix(1.0,0.0,0.0,1.0,95.41895,-166.81082)">
 <g fill="rgb(0.0%,0.0%,0.0%)">
 <text style="stroke:none" transform="scale(1,-1) translate(4.16565,0)" text-anchor="middle"  font-size="10"> 
7</text> 
</g>
 </g>
 </g>
 </g>
 <path d="  " style="fill:none"/>
 <g>
 <g>
 <g transform="matrix(1.0,0.0,0.0,1.0,123.87169,-166.81082)">
 <g fill="rgb(0.0%,0.0%,0.0%)">
 <text style="stroke:none" transform="scale(1,-1) translate(4.16565,0)" text-anchor="middle"  font-size="10"> 
0</text> 
</g>
 </g>
 </g>
 </g>
 <path d="  " style="fill:none"/>
 <g>
 <g>
 <g transform="matrix(1.0,0.0,0.0,1.0,152.32443,-166.81082)">
 <g fill="rgb(0.0%,0.0%,0.0%)">
 <text style="stroke:none" transform="scale(1,-1) translate(4.16565,0)" text-anchor="middle"  font-size="10"> 
9</text> 
</g>
 </g>
 </g>
 </g>
 <path d="  " style="fill:none"/>
 <g>
 <g>
 <g transform="matrix(1.0,0.0,0.0,1.0,180.77718,-166.81082)">
 <g fill="rgb(0.0%,0.0%,0.0%)">
 <text style="stroke:none" transform="scale(1,-1) translate(4.16565,0)" text-anchor="middle"  font-size="10"> 
2</text> 
</g>
 </g>
 </g>
 </g>
 <path d="  " style="fill:none"/>
 <g>
 <g>
 <g transform="matrix(1.0,0.0,0.0,1.0,209.22992,-166.81082)">
 <g fill="rgb(0.0%,0.0%,0.0%)">
 <text style="stroke:none" transform="scale(1,-1) translate(4.16565,0)" text-anchor="middle"  font-size="10"> 
8</text> 
</g>
 </g>
 </g>
 </g>
 <path d="  " style="fill:none"/>
 <g>
 <g>
 <g transform="matrix(1.0,0.0,0.0,1.0,237.68266,-166.81082)">
 <g fill="rgb(0.0%,0.0%,0.0%)">
 <text style="stroke:none" transform="scale(1,-1) translate(4.16565,0)" text-anchor="middle"  font-size="10"> 
5</text> 
</g>
 </g>
 </g>
 </g>
 <path d="  " style="fill:none"/>
 <g>
 <g>
 <g transform="matrix(1.0,0.0,0.0,1.0,266.1354,-166.81082)">
 <g fill="rgb(0.0%,0.0%,0.0%)">
 <text style="stroke:none" transform="scale(1,-1) translate(4.16565,0)" text-anchor="middle"  font-size="10"> 
6</text> 
</g>
 </g>
 </g>
 </g>
 <path d="  " style="fill:none"/>
 <g>
 <g>
 <g transform="matrix(1.0,0.0,0.0,1.0,294.58815,-166.81082)">
 <g fill="rgb(0.0%,0.0%,0.0%)">
 <text style="stroke:none" transform="scale(1,-1) translate(4.16565,0)" text-anchor="middle"  font-size="10"> 
3</text> 
</g>
 </g>
 </g>
 </g>
 <path d="  " style="fill:none"/>
 <g>
 <g>
 <g transform="matrix(1.0,0.0,0.0,1.0,323.0409,-166.81082)">
 <g fill="rgb(0.0%,0.0%,0.0%)">
 <text style="stroke:none" transform="scale(1,-1) translate(4.16565,0)" text-anchor="middle"  font-size="10"> 
4</text> 
</g>
 </g>
 </g>
 </g>
 </g>
 </g>
 </g>
 </g>
 </g>
 
                                                                                                    </g> 
</svg> 
