<?xml version="1.0" encoding="UTF-8" standalone="no"?>
<!DOCTYPE score-partwise
PUBLIC "-//Recordare//DTD MusicXML 1.0 Partwise//EN"
"http://www.musicxml.org/dtds/partwise.dtd">


<score-partwise>
	<identification>
		<encoding>
			<software>SharpEye Music Reader 2</software>
			<encoding-description>Scanning program</encoding-description>
		</encoding>
	</identification>

	<part-list>
		<score-part id="P1">
			<part-name>Part_1</part-name>
		</score-part>
		<score-part id="P2">
			<part-name>Part_2</part-name>
		</score-part>
		<score-part id="P3">
			<part-name>Part_3</part-name>
		</score-part>
	</part-list>

	<part id="P1">
		<measure number = "1">
			<attributes>
				<divisions>12</divisions>
				<key>
					<fifths>0</fifths>
				</key>
				<time symbol="cut">
					<beats>2</beats>
					<beat-type>2</beat-type>
				</time>
				<staves>1</staves>
				<clef number = "1">
					<sign>G</sign>
					<line>2</line>
					<clef-octave-change>0</clef-octave-change>
				</clef>
			</attributes>
			<note>
				<rest/>
				<duration>24</duration>
				<voice>1</voice>
				<type>half</type>
				<notations>
				</notations>
			</note>
		</measure>
<!--===================================================-->
		<measure number = "2">
			<note>
				<rest/>
				<duration>24</duration>
				<voice>1</voice>
				<type>half</type>
				<notations>
				</notations>
			</note>
			<note>
				<rest/>
				<duration>12</duration>
				<voice>1</voice>
				<type>quarter</type>
				<notations>
				</notations>
			</note>
			<note>
				<rest/>
				<duration>6</duration>
				<voice>1</voice>
				<type>eighth</type>
				<notations>
				</notations>
			</note>
			<direction placement="above">
				<direction-type>
					<dynamics default-y="24">
						<f/>
					</dynamics>
				</direction-type>
			</direction>
			<note>
				<pitch>
					<step>G</step>
					<alter>1</alter>
					<octave>5</octave>
				</pitch>
				<duration>6</duration>
				<voice>1</voice>
				<type>eighth</type>
				<accidental>sharp</accidental>
				<stem>down</stem>
				<notations>
				</notations>
				<lyric number="1">
					<syllabic>single</syllabic>
					<text>Mein</text>
				</lyric>
			</note>
		</measure>
<!--===================================================-->
		<measure number = "3">
			<direction placement="above">
				<direction-type>
					<wedge type="diminuendo" number="1" default-y="25"/>
				</direction-type>
			</direction>
			<note>
				<pitch>
					<step>G</step>
					<alter>1</alter>
					<octave>5</octave>
				</pitch>
				<duration>12</duration>
				<voice>1</voice>
				<type>quarter</type>
				<accidental>sharp</accidental>
				<stem>down</stem>
				<notations>
				</notations>
				<lyric number="1">
					<syllabic>single</syllabic>
					<text>Kind,</text>
				</lyric>
			</note>
			<note>
				<rest/>
				<duration>6</duration>
				<voice>1</voice>
				<type>eighth</type>
				<notations>
				</notations>
			</note>
			<note>
				<pitch>
					<step>B</step>
					<alter>-1</alter>
					<octave>3</octave>
				</pitch>
				<duration>6</duration>
				<voice>1</voice>
				<type>eighth</type>
				<accidental>flat</accidental>
				<stem>up</stem>
				<notations>
				</notations>
				<lyric number="1">
					<syllabic>single</syllabic>
					<text>sieh</text>
				</lyric>
			</note>
			<direction placement="above">
				<direction-type>
					<wedge type="stop" number="1" default-y="25"/>
				</direction-type>
			</direction>
			<note>
				<pitch>
					<step>C</step>
					<alter>1</alter>
					<octave>4</octave>
				</pitch>
				<duration>12</duration>
				<voice>1</voice>
				<type>quarter</type>
				<accidental>sharp</accidental>
				<stem>up</stem>
				<notations>
					<slur type="start" number="1" orientation="under"/>
				</notations>
				<lyric number="1">
					<syllabic>single</syllabic>
					<text>an</text>
				</lyric>
			</note>
			<note>
				<pitch>
					<step>A</step>
					<octave>4</octave>
				</pitch>
				<duration>12</duration>
				<voice>1</voice>
				<type>quarter</type>
				<stem>up</stem>
				<notations>
					<slur type="stop" number="1" orientation="under"/>
				</notations>
				<lyric number="1">
					<syllabic>single</syllabic>
					<text>die</text>
				</lyric>
			</note>
		</measure>
<!--===================================================-->
		<measure number = "4">
			<print new-system="yes"/>
			<note>
				<pitch>
					<step>B</step>
					<octave>5</octave>
				</pitch>
				<duration>16</duration>
				<voice>1</voice>
				<type>half</type>
				<time-modification>
					<actual-notes>3</actual-notes>
					<normal-notes>2</normal-notes>
					<normal-type>quarter</normal-type>
				</time-modification>
				<stem>down</stem>
				<notations>
					<slur type="start" number="1" orientation="over"/>
					<tuplet type="start"/>
				</notations>
				<lyric number="1">
					<syllabic>begin</syllabic>
					<text>Brii</text>
				</lyric>
			</note>
			<note>
				<pitch>
					<step>C</step>
					<octave>5</octave>
				</pitch>
				<duration>8</duration>
				<voice>1</voice>
				<type>quarter</type>
				<accidental>natural</accidental>
				<time-modification>
					<actual-notes>3</actual-notes>
					<normal-notes>2</normal-notes>
				</time-modification>
				<stem>down</stem>
				<notations>
					<slur type="stop" number="1" orientation="over"/>
					<tuplet type="stop"/>
				</notations>
				<lyric number="1">
					<syllabic>end</syllabic>
					<text>ste</text>
				</lyric>
			</note>
			<note>
				<pitch>
					<step>E</step>
					<alter>-1</alter>
					<octave>5</octave>
				</pitch>
				<duration>6</duration>
				<voice>1</voice>
				<type>eighth</type>
				<accidental>flat</accidental>
				<stem>up</stem>
				<beam number="1">begin</beam>
				<notations>
					<slur type="start" number="1" orientation="under"/>
				</notations>
			</note>
			<direction placement="above">
				<direction-type>
					<dynamics default-y="36">
						<p/>
					</dynamics>
				</direction-type>
			</direction>
			<note>
				<pitch>
					<step>D</step>
					<octave>4</octave>
				</pitch>
				<duration>6</duration>
				<voice>1</voice>
				<type>eighth</type>
				<accidental>natural</accidental>
				<stem>up</stem>
				<beam number="1">end</beam>
				<notations>
					<slur type="stop" number="1" orientation="under"/>
				</notations>
				<lyric number="1">
					<syllabic>single</syllabic>
					<text>mein,</text>
				</lyric>
			</note>
			<note>
				<rest/>
				<duration>6</duration>
				<voice>1</voice>
				<type>eighth</type>
				<notations>
				</notations>
			</note>
			<direction placement="above">
				<direction-type>
					<dynamics default-y="41">
						<f/>
					</dynamics>
				</direction-type>
			</direction>
			<note>
				<pitch>
					<step>C</step>
					<alter>1</alter>
					<octave>6</octave>
				</pitch>
				<duration>6</duration>
				<voice>1</voice>
				<type>eighth</type>
				<accidental>sharp</accidental>
				<stem>down</stem>
				<notations>
				</notations>
				<lyric number="1">
					<syllabic>single</syllabic>
					<text>kein</text>
				</lyric>
			</note>
		</measure>
<!--===================================================-->
		<measure number = "5">
			<note>
				<pitch>
					<step>A</step>
					<octave>5</octave>
				</pitch>
				<duration>16</duration>
				<voice>1</voice>
				<type>half</type>
				<time-modification>
					<actual-notes>3</actual-notes>
					<normal-notes>2</normal-notes>
					<normal-type>quarter</normal-type>
				</time-modification>
				<stem>down</stem>
				<notations>
					<slur type="start" number="1" orientation="over"/>
					<tuplet type="start"/>
				</notations>
				<lyric number="1">
					<syllabic>begin</syllabic>
					<text>Sim</text>
				</lyric>
			</note>
			<note>
				<pitch>
					<step>G</step>
					<octave>4</octave>
				</pitch>
				<duration>8</duration>
				<voice>1</voice>
				<type>quarter</type>
				<time-modification>
					<actual-notes>3</actual-notes>
					<normal-notes>2</normal-notes>
				</time-modification>
				<stem>up</stem>
				<notations>
					<slur type="stop" number="1" orientation="over"/>
					<tuplet type="stop"/>
				</notations>
				<lyric number="1">
					<syllabic>end</syllabic>
					<text>der</text>
				</lyric>
			</note>
			<note>
				<rest/>
				<duration>12</duration>
				<voice>1</voice>
				<type>quarter</type>
				<notations>
				</notations>
			</note>
			<direction placement="above">
				<direction-type>
					<dynamics default-y="5">
						<f/>
					</dynamics>
				</direction-type>
			</direction>
			<note>
				<pitch>
					<step>C</step>
					<octave>4</octave>
				</pitch>
				<duration>6</duration>
				<voice>1</voice>
				<type>eighth</type>
				<stem>up</stem>
				<beam number="1">begin</beam>
				<notations>
				</notations>
				<lyric number="1">
					<syllabic>single</syllabic>
					<text>afi</text>
				</lyric>
			</note>
			<note>
				<pitch>
					<step>F</step>
					<octave>5</octave>
				</pitch>
				<duration>6</duration>
				<voice>1</voice>
				<type>eighth</type>
				<stem>up</stem>
				<beam number="1">end</beam>
				<notations>
				</notations>
				<lyric number="1">
					<syllabic>begin</syllabic>
					<text>ver</text>
				</lyric>
			</note>
		</measure>
<!--===================================================-->
		<measure number = "6">
			<note>
				<pitch>
					<step>G</step>
					<octave>4</octave>
				</pitch>
				<duration>8</duration>
				<voice>1</voice>
				<type>quarter</type>
				<accidental>natural</accidental>
				<time-modification>
					<actual-notes>3</actual-notes>
					<normal-notes>2</normal-notes>
				</time-modification>
				<stem>up</stem>
				<notations>
					<slur type="start" number="1" orientation="over"/>
					<tuplet type="start"/>
				</notations>
				<lyric number="1">
					<syllabic>middle</syllabic>
					<text>Io</text>
				</lyric>
			</note>
			<note>
				<pitch>
					<step>B</step>
					<alter>-1</alter>
					<octave>5</octave>
				</pitch>
				<duration>8</duration>
				<voice>1</voice>
				<type>quarter</type>
				<accidental>flat</accidental>
				<time-modification>
					<actual-notes>3</actual-notes>
					<normal-notes>2</normal-notes>
				</time-modification>
				<stem>down</stem>
				<notations>
					<slur type="stop" number="1" orientation="over"/>
					<slur type="start" number="1" orientation="over"/>
				</notations>
				<lyric number="1">
					<syllabic>end</syllabic>
					<text>ren</text>
				</lyric>
			</note>
			<note>
				<pitch>
					<step>A</step>
					<octave>4</octave>
				</pitch>
				<duration>8</duration>
				<voice>1</voice>
				<type>quarter</type>
				<time-modification>
					<actual-notes>3</actual-notes>
					<normal-notes>2</normal-notes>
				</time-modification>
				<stem>up</stem>
				<notations>
					<slur type="stop" number="1" orientation="over"/>
					<tuplet type="stop"/>
				</notations>
				<lyric number="1">
					<syllabic>single</syllabic>
					<text>sein.</text>
				</lyric>
			</note>
			<note>
				<rest/>
				<duration>24</duration>
				<voice>1</voice>
				<type>half</type>
				<notations>
				</notations>
			</note>
		</measure>
<!--===================================================-->
		<measure number = "7">
			<print new-system="yes"/>
			<note>
				<rest/>
				<duration>12</duration>
				<voice>1</voice>
				<type>quarter</type>
				<notations>
				</notations>
			</note>
			<direction placement="above">
				<direction-type>
					<dynamics default-y="36">
						<p/>
					</dynamics>
				</direction-type>
				<direction-type>
					<wedge type="diminuendo" number="1" default-y="16"/>
				</direction-type>
			</direction>
			<note>
				<pitch>
					<step>E</step>
					<octave>5</octave>
				</pitch>
				<duration>6</duration>
				<voice>1</voice>
				<type>eighth</type>
				<stem>down</stem>
				<beam number="1">begin</beam>
				<notations>
					<slur type="start" number="1" orientation="over"/>
					<slur type="start" number="2" orientation="over"/>
				</notations>
				<lyric number="1">
					<syllabic>begin</syllabic>
					<text>Mut</text>
				</lyric>
			</note>
			<note>
				<pitch>
					<step>F</step>
					<octave>4</octave>
				</pitch>
				<duration>6</duration>
				<voice>1</voice>
				<type>eighth</type>
				<accidental>natural</accidental>
				<stem>down</stem>
				<beam number="1">end</beam>
				<notations>
					<slur type="stop" number="2" orientation="over"/>
					<slur type="stop" number="1" orientation="over"/>
				</notations>
				<lyric number="1">
					<syllabic>end</syllabic>
					<text>ter,</text>
				</lyric>
			</note>
			<direction placement="above">
				<direction-type>
					<wedge type="stop" number="1" default-y="16"/>
				</direction-type>
			</direction>
			<note>
				<rest/>
				<duration>6</duration>
				<voice>1</voice>
				<type>eighth</type>
				<notations>
				</notations>
			</note>
			<note>
				<pitch>
					<step>E</step>
					<alter>-1</alter>
					<octave>5</octave>
				</pitch>
				<duration>6</duration>
				<voice>1</voice>
				<type>eighth</type>
				<accidental>flat</accidental>
				<stem>down</stem>
				<beam number="1">begin</beam>
				<notations>
					<slur type="start" number="1" orientation="over"/>
				</notations>
				<lyric number="1">
					<syllabic>single</syllabic>
					<text>sich</text>
				</lyric>
			</note>
			<note>
				<pitch>
					<step>E</step>
					<octave>4</octave>
				</pitch>
				<duration>6</duration>
				<voice>1</voice>
				<type>eighth</type>
				<accidental>natural</accidental>
				<stem>down</stem>
				<beam number="1">continue</beam>
				<notations>
					<slur type="stop" number="1" orientation="over"/>
				</notations>
				<lyric number="1">
					<syllabic>single</syllabic>
					<text>am</text>
				</lyric>
			</note>
			<note>
				<pitch>
					<step>F</step>
					<octave>5</octave>
				</pitch>
				<duration>6</duration>
				<voice>1</voice>
				<type>eighth</type>
				<accidental>natural</accidental>
				<stem>down</stem>
				<beam number="1">end</beam>
				<notations>
				</notations>
				<lyric number="1">
					<syllabic>single</syllabic>
					<text>die</text>
				</lyric>
			</note>
		</measure>
<!--===================================================-->
		<measure number = "8">
			<direction placement="above">
				<direction-type>
					<dynamics default-y="13">
						<f/>
					</dynamics>
				</direction-type>
			</direction>
			<note>
				<pitch>
					<step>C</step>
					<octave>4</octave>
				</pitch>
				<duration>16</duration>
				<voice>1</voice>
				<type>half</type>
				<accidental>natural</accidental>
				<time-modification>
					<actual-notes>3</actual-notes>
					<normal-notes>2</normal-notes>
				</time-modification>
				<stem>up</stem>
				<notations>
					<tuplet type="start"/>
				</notations>
				<lyric number="1">
					<syllabic>begin</syllabic>
					<text>Wun</text>
				</lyric>
			</note>
			<note>
				<pitch>
					<step>G</step>
					<alter>1</alter>
					<octave>4</octave>
				</pitch>
				<duration>16</duration>
				<voice>1</voice>
				<type>half</type>
				<accidental>sharp</accidental>
				<time-modification>
					<actual-notes>3</actual-notes>
					<normal-notes>2</normal-notes>
				</time-modification>
				<stem>up</stem>
				<notations>
				</notations>
			</note>
			<note>
				<pitch>
					<step>G</step>
					<octave>5</octave>
				</pitch>
				<duration>8</duration>
				<voice>1</voice>
				<type>quarter</type>
				<accidental>natural</accidental>
				<time-modification>
					<actual-notes>3</actual-notes>
					<normal-notes>2</normal-notes>
					<normal-type>half</normal-type>
				</time-modification>
				<stem>down</stem>
				<notations>
					<articulations>
						<staccato/>
					</articulations>
				</notations>
				<lyric number="1">
					<syllabic>end</syllabic>
					<text>den,</text>
				</lyric>
			</note>
			<note>
				<rest/>
				<duration>8</duration>
				<voice>1</voice>
				<type>quarter</type>
				<time-modification>
					<actual-notes>3</actual-notes>
					<normal-notes>2</normal-notes>
					<normal-type>half</normal-type>
				</time-modification>
				<notations>
					<tuplet type="stop"/>
				</notations>
			</note>
		</measure>
<!--===================================================-->
	</part>

	<part id="P2">
		<measure number = "1">
			<attributes>
				<divisions>12</divisions>
				<key>
					<fifths>0</fifths>
				</key>
				<time symbol="cut">
					<beats>2</beats>
					<beat-type>2</beat-type>
				</time>
				<staves>1</staves>
				<clef number = "1">
					<sign>G</sign>
					<line>2</line>
					<clef-octave-change>0</clef-octave-change>
				</clef>
			</attributes>
			<note>
				<rest/>
				<duration>3</duration>
				<voice>1</voice>
				<type>16th</type>
				<notations>
				</notations>
			</note>
			<direction placement="below">
				<direction-type>
					<dynamics default-y="-56">
						<sf/>
					</dynamics>
				</direction-type>
			</direction>
			<note>
				<pitch>
					<step>F</step>
					<octave>5</octave>
				</pitch>
				<duration>3</duration>
				<voice>1</voice>
				<type>16th</type>
				<stem>up</stem>
				<beam number="1">begin</beam>
				<beam number="2">begin</beam>
				<notations>
					<articulations>
						<staccato/>
					</articulations>
					<slur type="start" number="1" orientation="over"/>
				</notations>
			</note>
			<note>
				<pitch>
					<step>A</step>
					<octave>3</octave>
				</pitch>
				<duration>3</duration>
				<voice>1</voice>
				<type>16th</type>
				<stem>up</stem>
				<beam number="1">continue</beam>
				<beam number="2">continue</beam>
				<notations>
				</notations>
			</note>
			<note>
				<pitch>
					<step>F</step>
					<octave>4</octave>
				</pitch>
				<duration>3</duration>
				<voice>1</voice>
				<type>16th</type>
				<stem>up</stem>
				<beam number="1">end</beam>
				<beam number="2">end</beam>
				<notations>
				</notations>
			</note>
			<note>
				<pitch>
					<step>G</step>
					<alter>1</alter>
					<octave>4</octave>
				</pitch>
				<duration>3</duration>
				<voice>1</voice>
				<type>16th</type>
				<accidental>sharp</accidental>
				<stem>down</stem>
				<beam number="1">begin</beam>
				<beam number="2">begin</beam>
				<notations>
				</notations>
			</note>
			<note>
				<pitch>
					<step>E</step>
					<octave>5</octave>
				</pitch>
				<duration>3</duration>
				<voice>1</voice>
				<type>16th</type>
				<accidental>natural</accidental>
				<stem>down</stem>
				<beam number="1">continue</beam>
				<beam number="2">continue</beam>
				<notations>
				</notations>
			</note>
			<note>
				<pitch>
					<step>G</step>
					<octave>5</octave>
				</pitch>
				<duration>3</duration>
				<voice>1</voice>
				<type>16th</type>
				<accidental>natural</accidental>
				<stem>down</stem>
				<beam number="1">continue</beam>
				<beam number="2">continue</beam>
				<notations>
				</notations>
			</note>
			<direction placement="below">
				<direction-type>
					<dynamics default-y="-57">
						<sf/>
					</dynamics>
				</direction-type>
			</direction>
			<note>
				<pitch>
					<step>E</step>
					<alter>-1</alter>
					<octave>6</octave>
				</pitch>
				<duration>3</duration>
				<voice>1</voice>
				<type>16th</type>
				<accidental>flat</accidental>
				<stem>down</stem>
				<beam number="1">end</beam>
				<beam number="2">end</beam>
				<notations>
					<articulations>
						<staccato/>
					</articulations>
					<slur type="stop" number="1" orientation="over"/>
				</notations>
			</note>
		</measure>
<!--===================================================-->
		<measure number = "2">
			<note>
				<rest/>
				<duration>3</duration>
				<voice>1</voice>
				<type>16th</type>
				<notations>
				</notations>
			</note>
			<direction placement="below">
				<direction-type>
					<dynamics default-y="-54">
						<fp/>
					</dynamics>
				</direction-type>
			</direction>
			<note>
				<pitch>
					<step>B</step>
					<alter>-1</alter>
					<octave>5</octave>
				</pitch>
				<duration>21</duration>
				<voice>1</voice>
				<type>quarter</type>
				<dot/>
				<dot/>
				<accidental>flat</accidental>
				<stem>down</stem>
				<notations>
				</notations>
			</note>
			<note>
				<rest/>
				<duration>3</duration>
				<voice>1</voice>
				<type>16th</type>
				<notations>
				</notations>
			</note>
			<direction placement="below">
				<direction-type>
					<wedge type="crescendo" number="1" default-y="-52"/>
				</direction-type>
			</direction>
			<note>
				<pitch>
					<step>A</step>
					<octave>4</octave>
				</pitch>
				<duration>21</duration>
				<voice>1</voice>
				<type>quarter</type>
				<dot/>
				<dot/>
				<stem>up</stem>
				<notations>
				</notations>
			</note>
			<direction placement="below">
				<direction-type>
					<wedge type="stop" number="1" default-y="-52"/>
				</direction-type>
			</direction>
		</measure>
<!--===================================================-->
		<measure number = "3">
			<note>
				<rest/>
				<duration>12</duration>
				<voice>1</voice>
				<type>quarter</type>
				<notations>
				</notations>
			</note>
			<direction placement="below">
				<direction-type>
					<dynamics default-y="-65">
						<p/>
					</dynamics>
				</direction-type>
				<direction-type>
					<wedge type="crescendo" number="1" default-y="-63"/>
				</direction-type>
			</direction>
			<note>
				<pitch>
					<step>B</step>
					<octave>4</octave>
				</pitch>
				<duration>3</duration>
				<voice>1</voice>
				<type>16th</type>
				<accidental>natural</accidental>
				<stem>down</stem>
				<beam number="1">begin</beam>
				<beam number="2">begin</beam>
				<notations>
				</notations>
			</note>
			<note>
				<pitch>
					<step>B</step>
					<octave>4</octave>
				</pitch>
				<duration>3</duration>
				<voice>1</voice>
				<type>16th</type>
				<stem>down</stem>
				<beam number="1">continue</beam>
				<beam number="2">continue</beam>
				<notations>
					<articulations>
						<staccato/>
					</articulations>
				</notations>
			</note>
			<note>
				<pitch>
					<step>B</step>
					<octave>4</octave>
				</pitch>
				<duration>3</duration>
				<voice>1</voice>
				<type>16th</type>
				<stem>down</stem>
				<beam number="1">continue</beam>
				<beam number="2">continue</beam>
				<notations>
					<articulations>
						<staccato/>
					</articulations>
				</notations>
			</note>
			<note>
				<pitch>
					<step>B</step>
					<octave>4</octave>
				</pitch>
				<duration>3</duration>
				<voice>1</voice>
				<type>16th</type>
				<stem>down</stem>
				<beam number="1">end</beam>
				<beam number="2">end</beam>
				<notations>
					<slur type="start" number="1" orientation="over"/>
				</notations>
			</note>
			<direction placement="below">
				<direction-type>
					<wedge type="stop" number="1" default-y="-63"/>
				</direction-type>
			</direction>
			<direction placement="below">
				<direction-type>
					<dynamics default-y="-53">
						<sf/>
					</dynamics>
				</direction-type>
			</direction>
			<note>
				<pitch>
					<step>C</step>
					<octave>6</octave>
				</pitch>
				<duration>6</duration>
				<voice>1</voice>
				<type>eighth</type>
				<accidental>natural</accidental>
				<stem>down</stem>
				<notations>
					<slur type="stop" number="1" orientation="over"/>
				</notations>
			</note>
			<note>
				<rest/>
				<duration>6</duration>
				<voice>1</voice>
				<type>eighth</type>
				<notations>
				</notations>
			</note>
			<note>
				<pitch>
					<step>G</step>
					<alter>1</alter>
					<octave>5</octave>
				</pitch>
				<duration>12</duration>
				<tie type="start"/>
				<voice>1</voice>
				<type>quarter</type>
				<accidental>sharp</accidental>
				<stem>down</stem>
				<notations>
					<tied type="start"/>
				</notations>
			</note>
		</measure>
<!--===================================================-->
		<measure number = "4">
			<print new-system="yes"/>
			<note>
				<pitch>
					<step>G</step>
					<alter>1</alter>
					<octave>5</octave>
				</pitch>
				<duration>12</duration>
				<tie type="stop"/>
				<voice>1</voice>
				<type>quarter</type>
				<accidental>sharp</accidental>
				<stem>down</stem>
				<notations>
					<tied type="stop"/>
				</notations>
			</note>
			<note>
				<rest/>
				<duration>6</duration>
				<voice>1</voice>
				<type>eighth</type>
				<notations>
				</notations>
			</note>
			<direction placement="below">
				<direction-type>
					<dynamics default-y="-64">
						<f/>
					</dynamics>
				</direction-type>
			</direction>
			<note>
				<pitch>
					<step>A</step>
					<octave>4</octave>
				</pitch>
				<duration>6</duration>
				<voice>1</voice>
				<type>eighth</type>
				<stem>up</stem>
				<notations>
				</notations>
			</note>
			<direction placement="below">
				<direction-type>
					<wedge type="diminuendo" number="1" default-y="-79"/>
				</direction-type>
			</direction>
			<note>
				<pitch>
					<step>E</step>
					<octave>4</octave>
				</pitch>
				<duration>8</duration>
				<voice>1</voice>
				<type>quarter</type>
				<time-modification>
					<actual-notes>3</actual-notes>
					<normal-notes>2</normal-notes>
				</time-modification>
				<stem>up</stem>
				<notations>
					<articulations>
						<staccato/>
					</articulations>
					<tuplet type="start"/>
				</notations>
			</note>
			<note>
				<pitch>
					<step>B</step>
					<alter>-1</alter>
					<octave>3</octave>
				</pitch>
				<duration>8</duration>
				<voice>1</voice>
				<type>quarter</type>
				<accidental>flat</accidental>
				<time-modification>
					<actual-notes>3</actual-notes>
					<normal-notes>2</normal-notes>
				</time-modification>
				<stem>up</stem>
				<notations>
					<articulations>
						<staccato/>
					</articulations>
				</notations>
			</note>
			<direction placement="below">
				<direction-type>
					<wedge type="stop" number="1" default-y="-79"/>
				</direction-type>
			</direction>
			<note>
				<rest/>
				<duration>8</duration>
				<voice>1</voice>
				<type>quarter</type>
				<time-modification>
					<actual-notes>3</actual-notes>
					<normal-notes>2</normal-notes>
				</time-modification>
				<notations>
					<tuplet type="stop"/>
				</notations>
			</note>
		</measure>
<!--===================================================-->
		<measure number = "5">
			<note>
				<rest/>
				<duration>12</duration>
				<voice>1</voice>
				<type>quarter</type>
				<notations>
				</notations>
			</note>
			<note>
				<rest/>
				<duration>6</duration>
				<voice>1</voice>
				<type>eighth</type>
				<notations>
				</notations>
			</note>
			<direction placement="below">
				<direction-type>
					<dynamics default-y="-56">
						<f/>
					</dynamics>
				</direction-type>
			</direction>
			<note>
				<pitch>
					<step>G</step>
					<octave>5</octave>
				</pitch>
				<duration>6</duration>
				<voice>1</voice>
				<type>eighth</type>
				<accidental>natural</accidental>
				<stem>down</stem>
				<notations>
					<articulations>
						<staccato/>
					</articulations>
				</notations>
			</note>
			<direction placement="below">
				<direction-type>
					<wedge type="crescendo" number="1" default-y="-62"/>
				</direction-type>
			</direction>
			<note>
				<pitch>
					<step>E</step>
					<alter>-1</alter>
					<octave>4</octave>
				</pitch>
				<duration>6</duration>
				<voice>1</voice>
				<type>eighth</type>
				<accidental>flat</accidental>
				<stem>down</stem>
				<beam number="1">begin</beam>
				<notations>
					<articulations>
						<staccato/>
					</articulations>
				</notations>
			</note>
			<note>
				<pitch>
					<step>D</step>
					<octave>6</octave>
				</pitch>
				<duration>6</duration>
				<voice>1</voice>
				<type>eighth</type>
				<accidental>natural</accidental>
				<stem>down</stem>
				<beam number="1">continue</beam>
				<notations>
					<articulations>
						<staccato/>
					</articulations>
				</notations>
			</note>
			<note>
				<pitch>
					<step>C</step>
					<alter>1</alter>
					<octave>5</octave>
				</pitch>
				<duration>6</duration>
				<voice>1</voice>
				<type>eighth</type>
				<accidental>sharp</accidental>
				<stem>down</stem>
				<beam number="1">continue</beam>
				<notations>
					<articulations>
						<staccato/>
					</articulations>
				</notations>
			</note>
			<note>
				<pitch>
					<step>A</step>
					<octave>5</octave>
				</pitch>
				<duration>6</duration>
				<voice>1</voice>
				<type>eighth</type>
				<accidental>natural</accidental>
				<stem>down</stem>
				<beam number="1">end</beam>
				<notations>
					<articulations>
						<staccato/>
					</articulations>
				</notations>
			</note>
			<direction placement="below">
				<direction-type>
					<wedge type="stop" number="1" default-y="-62"/>
				</direction-type>
			</direction>
		</measure>
<!--===================================================-->
		<measure number = "6">
			<note>
				<rest/>
				<duration>12</duration>
				<voice>1</voice>
				<type>quarter</type>
				<notations>
				</notations>
			</note>
			<note>
				<rest/>
				<duration>9</duration>
				<voice>1</voice>
				<type>eighth</type>
				<dot/>
				<notations>
				</notations>
			</note>
			<direction placement="below">
				<direction-type>
					<dynamics default-y="-53">
						<sf/>
					</dynamics>
				</direction-type>
				<direction-type>
					<wedge type="diminuendo" number="1" default-y="-66"/>
				</direction-type>
			</direction>
			<note>
				<pitch>
					<step>F</step>
					<octave>6</octave>
				</pitch>
				<duration>3</duration>
				<voice>1</voice>
				<type>16th</type>
				<accidental>natural</accidental>
				<stem>down</stem>
				<notations>
					<articulations>
						<staccato/>
					</articulations>
				</notations>
			</note>
			<note>
				<pitch>
					<step>G</step>
					<alter>1</alter>
					<octave>5</octave>
				</pitch>
				<duration>3</duration>
				<voice>1</voice>
				<type>16th</type>
				<accidental>sharp</accidental>
				<stem>down</stem>
				<beam number="1">begin</beam>
				<beam number="2">begin</beam>
				<notations>
					<slur type="start" number="1" orientation="over"/>
				</notations>
			</note>
			<note>
				<pitch>
					<step>E</step>
					<octave>5</octave>
				</pitch>
				<duration>3</duration>
				<voice>1</voice>
				<type>16th</type>
				<accidental>natural</accidental>
				<stem>down</stem>
				<beam number="1">continue</beam>
				<beam number="2">continue</beam>
				<notations>
				</notations>
			</note>
			<note>
				<pitch>
					<step>G</step>
					<octave>4</octave>
				</pitch>
				<duration>3</duration>
				<voice>1</voice>
				<type>16th</type>
				<accidental>natural</accidental>
				<stem>down</stem>
				<beam number="1">continue</beam>
				<beam number="2">continue</beam>
				<notations>
				</notations>
			</note>
			<note>
				<pitch>
					<step>E</step>
					<alter>-1</alter>
					<octave>4</octave>
				</pitch>
				<duration>3</duration>
				<voice>1</voice>
				<type>16th</type>
				<accidental>flat</accidental>
				<stem>down</stem>
				<beam number="1">end</beam>
				<beam number="2">end</beam>
				<notations>
					<slur type="stop" number="1" orientation="over"/>
				</notations>
			</note>
			<direction placement="below">
				<direction-type>
					<wedge type="stop" number="1" default-y="-66"/>
				</direction-type>
			</direction>
			<direction placement="below">
				<direction-type>
					<wedge type="diminuendo" number="1" default-y="-73"/>
				</direction-type>
			</direction>
			<note>
				<pitch>
					<step>B</step>
					<octave>3</octave>
				</pitch>
				<duration>6</duration>
				<voice>1</voice>
				<type>eighth</type>
				<stem>up</stem>
				<beam number="1">begin</beam>
				<notations>
					<slur type="start" number="1" orientation="under"/>
				</notations>
			</note>
			<note>
				<pitch>
					<step>C</step>
					<octave>5</octave>
				</pitch>
				<duration>6</duration>
				<voice>1</voice>
				<type>eighth</type>
				<accidental>natural</accidental>
				<stem>up</stem>
				<beam number="1">end</beam>
				<notations>
					<articulations>
						<staccato/>
					</articulations>
					<slur type="stop" number="1" orientation="under"/>
				</notations>
			</note>
			<direction placement="below">
				<direction-type>
					<wedge type="stop" number="1" default-y="-73"/>
				</direction-type>
			</direction>
		</measure>
<!--===================================================-->
		<measure number = "7">
			<print new-system="yes"/>
			<note>
				<rest/>
				<duration>12</duration>
				<voice>1</voice>
				<type>quarter</type>
				<notations>
				</notations>
			</note>
			<note>
				<rest/>
				<duration>6</duration>
				<voice>1</voice>
				<type>eighth</type>
				<notations>
				</notations>
			</note>
			<note>
				<pitch>
					<step>A</step>
					<octave>3</octave>
				</pitch>
				<duration>6</duration>
				<voice>1</voice>
				<type>eighth</type>
				<stem>up</stem>
				<notations>
				</notations>
			</note>
			<note>
				<pitch>
					<step>B</step>
					<alter>-1</alter>
					<octave>4</octave>
				</pitch>
				<duration>4</duration>
				<voice>1</voice>
				<type>eighth</type>
				<accidental>flat</accidental>
				<time-modification>
					<actual-notes>3</actual-notes>
					<normal-notes>2</normal-notes>
				</time-modification>
				<stem>down</stem>
				<beam number="1">begin</beam>
				<notations>
					<articulations>
						<staccato/>
					</articulations>
					<tuplet type="start"/>
				</notations>
			</note>
			<note>
				<pitch>
					<step>B</step>
					<alter>-1</alter>
					<octave>4</octave>
				</pitch>
				<duration>4</duration>
				<voice>1</voice>
				<type>eighth</type>
				<time-modification>
					<actual-notes>3</actual-notes>
					<normal-notes>2</normal-notes>
				</time-modification>
				<stem>down</stem>
				<beam number="1">continue</beam>
				<notations>
					<articulations>
						<staccato/>
					</articulations>
				</notations>
			</note>
			<note>
				<pitch>
					<step>G</step>
					<octave>5</octave>
				</pitch>
				<duration>4</duration>
				<voice>1</voice>
				<type>eighth</type>
				<accidental>natural</accidental>
				<time-modification>
					<actual-notes>3</actual-notes>
					<normal-notes>2</normal-notes>
				</time-modification>
				<stem>down</stem>
				<beam number="1">end</beam>
				<notations>
					<slur type="start" number="1" orientation="over"/>
					<tuplet type="stop"/>
				</notations>
			</note>
			<note>
				<pitch>
					<step>G</step>
					<alter>1</alter>
					<octave>4</octave>
				</pitch>
				<duration>4</duration>
				<voice>1</voice>
				<type>eighth</type>
				<accidental>sharp</accidental>
				<time-modification>
					<actual-notes>3</actual-notes>
					<normal-notes>2</normal-notes>
				</time-modification>
				<stem>down</stem>
				<beam number="1">begin</beam>
				<notations>
					<slur type="stop" number="1" orientation="over"/>
					<tuplet type="start"/>
				</notations>
			</note>
			<note>
				<rest/>
				<duration>4</duration>
				<voice>1</voice>
				<type>eighth</type>
				<time-modification>
					<actual-notes>3</actual-notes>
					<normal-notes>2</normal-notes>
				</time-modification>
				<notations>
				</notations>
			</note>
			<direction placement="below">
				<direction-type>
					<dynamics default-y="-61">
						<sf/>
					</dynamics>
				</direction-type>
			</direction>
			<note>
				<pitch>
					<step>D</step>
					<octave>6</octave>
				</pitch>
				<duration>4</duration>
				<voice>1</voice>
				<type>eighth</type>
				<accidental>natural</accidental>
				<time-modification>
					<actual-notes>3</actual-notes>
					<normal-notes>2</normal-notes>
				</time-modification>
				<stem>down</stem>
				<beam number="1">end</beam>
				<notations>
					<articulations>
						<accent/>
					</articulations>
					<tuplet type="stop"/>
				</notations>
			</note>
		</measure>
<!--===================================================-->
		<measure number = "8">
			<direction placement="below">
				<direction-type>
					<dynamics default-y="-74">
						<f/>
					</dynamics>
				</direction-type>
			</direction>
			<note>
				<pitch>
					<step>B</step>
					<octave>5</octave>
				</pitch>
				<duration>6</duration>
				<voice>1</voice>
				<type>eighth</type>
				<accidental>natural</accidental>
				<stem>down</stem>
				<beam number="1">begin</beam>
				<notations>
				</notations>
			</note>
			<note>
				<pitch>
					<step>E</step>
					<alter>-1</alter>
					<octave>5</octave>
				</pitch>
				<duration>6</duration>
				<voice>1</voice>
				<type>eighth</type>
				<accidental>flat</accidental>
				<stem>down</stem>
				<beam number="1">continue</beam>
				<notations>
					<articulations>
						<accent/>
					</articulations>
				</notations>
			</note>
			<note>
				<pitch>
					<step>E</step>
					<octave>4</octave>
				</pitch>
				<duration>6</duration>
				<voice>1</voice>
				<type>eighth</type>
				<accidental>natural</accidental>
				<stem>down</stem>
				<beam number="1">continue</beam>
				<notations>
					<articulations>
						<accent/>
					</articulations>
				</notations>
			</note>
			<note>
				<pitch>
					<step>F</step>
					<octave>5</octave>
				</pitch>
				<duration>6</duration>
				<voice>1</voice>
				<type>eighth</type>
				<accidental>natural</accidental>
				<stem>down</stem>
				<beam number="1">end</beam>
				<notations>
					<articulations>
						<accent/>
					</articulations>
				</notations>
			</note>
			<direction placement="below">
				<direction-type>
					<wedge type="diminuendo" number="1" default-y="-69"/>
				</direction-type>
			</direction>
			<note>
				<pitch>
					<step>D</step>
					<octave>6</octave>
				</pitch>
				<duration>4</duration>
				<voice>1</voice>
				<type>eighth</type>
				<accidental>natural</accidental>
				<time-modification>
					<actual-notes>3</actual-notes>
					<normal-notes>2</normal-notes>
				</time-modification>
				<stem>down</stem>
				<beam number="1">begin</beam>
				<notations>
					<slur type="start" number="1" orientation="over"/>
					<tuplet type="start"/>
				</notations>
			</note>
			<note>
				<pitch>
					<step>B</step>
					<octave>5</octave>
				</pitch>
				<duration>4</duration>
				<voice>1</voice>
				<type>eighth</type>
				<accidental>natural</accidental>
				<time-modification>
					<actual-notes>3</actual-notes>
					<normal-notes>2</normal-notes>
				</time-modification>
				<stem>down</stem>
				<beam number="1">continue</beam>
				<notations>
				</notations>
			</note>
			<note>
				<pitch>
					<step>E</step>
					<alter>-1</alter>
					<octave>5</octave>
				</pitch>
				<duration>4</duration>
				<voice>1</voice>
				<type>eighth</type>
				<accidental>flat</accidental>
				<time-modification>
					<actual-notes>3</actual-notes>
					<normal-notes>2</normal-notes>
				</time-modification>
				<stem>down</stem>
				<beam number="1">end</beam>
				<notations>
					<slur type="stop" number="1" orientation="over"/>
					<tuplet type="stop"/>
				</notations>
			</note>
			<direction placement="below">
				<direction-type>
					<wedge type="stop" number="1" default-y="-69"/>
				</direction-type>
			</direction>
			<note>
				<pitch>
					<step>E</step>
					<octave>4</octave>
				</pitch>
				<duration>3</duration>
				<voice>1</voice>
				<type>16th</type>
				<accidental>natural</accidental>
				<stem>down</stem>
				<beam number="1">begin</beam>
				<beam number="2">begin</beam>
				<notations>
					<slur type="start" number="1" orientation="over"/>
				</notations>
			</note>
			<note>
				<pitch>
					<step>G</step>
					<alter>1</alter>
					<octave>4</octave>
				</pitch>
				<duration>3</duration>
				<voice>1</voice>
				<type>16th</type>
				<accidental>sharp</accidental>
				<stem>down</stem>
				<beam number="1">continue</beam>
				<beam number="2">continue</beam>
				<notations>
				</notations>
			</note>
			<note>
				<pitch>
					<step>F</step>
					<octave>5</octave>
				</pitch>
				<duration>3</duration>
				<voice>1</voice>
				<type>16th</type>
				<accidental>natural</accidental>
				<stem>down</stem>
				<beam number="1">continue</beam>
				<beam number="2">continue</beam>
				<notations>
				</notations>
			</note>
			<note>
				<pitch>
					<step>D</step>
					<octave>6</octave>
				</pitch>
				<duration>3</duration>
				<voice>1</voice>
				<type>16th</type>
				<accidental>natural</accidental>
				<stem>down</stem>
				<beam number="1">end</beam>
				<beam number="2">end</beam>
				<notations>
					<slur type="stop" number="1" orientation="over"/>
				</notations>
			</note>
		</measure>
<!--===================================================-->
	</part>

	<part id="P3">
		<measure number = "1">
			<attributes>
				<divisions>12</divisions>
				<key>
					<fifths>0</fifths>
				</key>
				<time symbol="cut">
					<beats>2</beats>
					<beat-type>2</beat-type>
				</time>
				<staves>1</staves>
				<clef number = "1">
					<sign>F</sign>
					<line>4</line>
					<clef-octave-change>0</clef-octave-change>
				</clef>
			</attributes>
			<note>
				<rest/>
				<duration>24</duration>
				<voice>1</voice>
				<type>half</type>
				<notations>
				</notations>
			</note>
		</measure>
<!--===================================================-->
		<measure number = "2">
			<direction placement="below">
				<direction-type>
					<dynamics default-y="-56">
						<fp/>
					</dynamics>
				</direction-type>
			</direction>
			<note>
				<pitch>
					<step>D</step>
					<octave>3</octave>
				</pitch>
				<duration>16</duration>
				<voice>1</voice>
				<type>half</type>
				<time-modification>
					<actual-notes>3</actual-notes>
					<normal-notes>2</normal-notes>
					<normal-type>quarter</normal-type>
				</time-modification>
				<stem>up</stem>
				<notations>
					<slur type="start" number="1" orientation="over"/>
					<tuplet type="start"/>
				</notations>
			</note>
			<note>
				<chord/>
				<pitch>
					<step>B</step>
					<octave>2</octave>
				</pitch>
				<duration>16</duration>
				<voice>1</voice>
				<type>half</type>
				<time-modification>
					<actual-notes>3</actual-notes>
					<normal-notes>2</normal-notes>
					<normal-type>quarter</normal-type>
				</time-modification>
				<stem>up</stem>
				<notations>
				</notations>
			</note>
			<direction placement="below">
				<direction-type>
					<dynamics default-y="-59">
						<sf/>
					</dynamics>
				</direction-type>
			</direction>
			<note>
				<pitch>
					<step>C</step>
					<alter>1</alter>
					<octave>4</octave>
				</pitch>
				<duration>8</duration>
				<voice>1</voice>
				<type>quarter</type>
				<accidental>sharp</accidental>
				<time-modification>
					<actual-notes>3</actual-notes>
					<normal-notes>2</normal-notes>
				</time-modification>
				<stem>down</stem>
				<notations>
					<articulations>
						<staccato/>
					</articulations>
					<slur type="stop" number="1" orientation="over"/>
					<tuplet type="stop"/>
				</notations>
			</note>
			<note>
				<pitch>
					<step>F</step>
					<octave>3</octave>
				</pitch>
				<duration>16</duration>
				<voice>1</voice>
				<type>half</type>
				<time-modification>
					<actual-notes>3</actual-notes>
					<normal-notes>2</normal-notes>
					<normal-type>quarter</normal-type>
				</time-modification>
				<stem>down</stem>
				<notations>
					<articulations>
						<staccato/>
					</articulations>
					<slur type="start" number="1" orientation="over"/>
					<tuplet type="start"/>
				</notations>
			</note>
			<note>
				<chord/>
				<pitch>
					<step>C</step>
					<octave>3</octave>
				</pitch>
				<duration>16</duration>
				<voice>1</voice>
				<type>half</type>
				<time-modification>
					<actual-notes>3</actual-notes>
					<normal-notes>2</normal-notes>
					<normal-type>quarter</normal-type>
				</time-modification>
				<stem>down</stem>
				<notations>
				</notations>
			</note>
			<direction placement="below">
				<direction-type>
					<dynamics default-y="-57">
						<sf/>
					</dynamics>
				</direction-type>
			</direction>
			<note>
				<pitch>
					<step>F</step>
					<octave>4</octave>
				</pitch>
				<duration>8</duration>
				<voice>1</voice>
				<type>quarter</type>
				<accidental>natural</accidental>
				<time-modification>
					<actual-notes>3</actual-notes>
					<normal-notes>2</normal-notes>
				</time-modification>
				<stem>down</stem>
				<notations>
					<articulations>
						<staccato/>
					</articulations>
					<slur type="stop" number="1" orientation="over"/>
					<tuplet type="stop"/>
				</notations>
			</note>
		</measure>
<!--===================================================-->
		<measure number = "3">
			<direction placement="below">
				<direction-type>
					<dynamics default-y="-58">
						<f/>
					</dynamics>
				</direction-type>
				<direction-type>
					<wedge type="crescendo" number="1" default-y="-57"/>
				</direction-type>
			</direction>
			<note>
				<pitch>
					<step>G</step>
					<octave>3</octave>
				</pitch>
				<duration>8</duration>
				<voice>1</voice>
				<type>quarter</type>
				<time-modification>
					<actual-notes>3</actual-notes>
					<normal-notes>2</normal-notes>
				</time-modification>
				<stem>down</stem>
				<notations>
					<articulations>
						<accent/>
					</articulations>
					<tuplet type="start"/>
				</notations>
			</note>
			<note>
				<chord/>
				<pitch>
					<step>E</step>
					<octave>3</octave>
				</pitch>
				<duration>8</duration>
				<voice>1</voice>
				<type>quarter</type>
				<time-modification>
					<actual-notes>3</actual-notes>
					<normal-notes>2</normal-notes>
				</time-modification>
				<stem>down</stem>
				<notations>
				</notations>
			</note>
			<note>
				<pitch>
					<step>E</step>
					<alter>-1</alter>
					<octave>4</octave>
				</pitch>
				<duration>8</duration>
				<voice>1</voice>
				<type>quarter</type>
				<accidental>flat</accidental>
				<time-modification>
					<actual-notes>3</actual-notes>
					<normal-notes>2</normal-notes>
				</time-modification>
				<stem>down</stem>
				<notations>
				</notations>
			</note>
			<attributes>
				<clef number = "1">
					<sign>G</sign>
					<line>2</line>
					<clef-octave-change>0</clef-octave-change>
				</clef>
			</attributes>
			<note>
				<pitch>
					<step>D</step>
					<octave>5</octave>
				</pitch>
				<duration>8</duration>
				<voice>1</voice>
				<type>quarter</type>
				<accidental>natural</accidental>
				<time-modification>
					<actual-notes>3</actual-notes>
					<normal-notes>2</normal-notes>
				</time-modification>
				<stem>down</stem>
				<notations>
					<articulations>
						<accent/>
					</articulations>
					<tuplet type="stop"/>
				</notations>
			</note>
			<direction placement="below">
				<direction-type>
					<wedge type="stop" number="1" default-y="-57"/>
				</direction-type>
			</direction>
			<attributes>
				<clef number = "1">
					<sign>F</sign>
					<line>4</line>
					<clef-octave-change>0</clef-octave-change>
				</clef>
			</attributes>
			<note>
				<rest/>
				<duration>6</duration>
				<voice>1</voice>
				<type>eighth</type>
				<notations>
				</notations>
			</note>
			<direction placement="below">
				<direction-type>
					<dynamics default-y="-58">
						<p/>
					</dynamics>
				</direction-type>
				<direction-type>
					<dynamics default-y="-56">
						<f/>
					</dynamics>
				</direction-type>
			</direction>
			<note>
				<pitch>
					<step>F</step>
					<alter>1</alter>
					<octave>4</octave>
				</pitch>
				<duration>6</duration>
				<voice>1</voice>
				<type>eighth</type>
				<accidental>sharp</accidental>
				<stem>down</stem>
				<beam number="1">begin</beam>
				<notations>
					<articulations>
						<accent/>
					</articulations>
				</notations>
			</note>
			<note>
				<pitch>
					<step>E</step>
					<octave>4</octave>
				</pitch>
				<duration>6</duration>
				<voice>1</voice>
				<type>eighth</type>
				<accidental>natural</accidental>
				<stem>down</stem>
				<beam number="1">continue</beam>
				<notations>
					<articulations>
						<accent/>
					</articulations>
				</notations>
			</note>
			<note>
				<chord/>
				<pitch>
					<step>F</step>
					<octave>3</octave>
				</pitch>
				<duration>6</duration>
				<voice>1</voice>
				<type>eighth</type>
				<accidental>natural</accidental>
				<stem>down</stem>
				<notations>
				</notations>
			</note>
			<note>
				<pitch>
					<step>G</step>
					<octave>4</octave>
				</pitch>
				<duration>6</duration>
				<voice>1</voice>
				<type>eighth</type>
				<accidental>natural</accidental>
				<stem>down</stem>
				<beam number="1">end</beam>
				<notations>
					<articulations>
						<accent/>
					</articulations>
				</notations>
			</note>
		</measure>
<!--===================================================-->
		<measure number = "4">
			<print new-system="yes"/>
			<note>
				<pitch>
					<step>E</step>
					<alter>-1</alter>
					<octave>3</octave>
				</pitch>
				<duration>6</duration>
				<voice>1</voice>
				<type>eighth</type>
				<accidental>flat</accidental>
				<stem>down</stem>
				<notations>
				</notations>
			</note>
			<backup>
				<duration>6</duration>
			</backup>
			<note>
				<pitch>
					<step>D</step>
					<octave>4</octave>
				</pitch>
				<duration>6</duration>
				<voice>2</voice>
				<type>eighth</type>
				<stem>down</stem>
				<beam number="1">begin</beam>
				<notations>
				</notations>
			</note>
			<attributes>
				<clef number = "1">
					<sign>G</sign>
					<line>2</line>
					<clef-octave-change>0</clef-octave-change>
				</clef>
			</attributes>
			<note>
				<pitch>
					<step>B</step>
					<alter>-1</alter>
					<octave>4</octave>
				</pitch>
				<duration>6</duration>
				<voice>2</voice>
				<type>eighth</type>
				<accidental>flat</accidental>
				<stem>down</stem>
				<beam number="1">continue</beam>
				<notations>
					<articulations>
						<accent/>
					</articulations>
				</notations>
			</note>
			<note>
				<pitch>
					<step>C</step>
					<alter>1</alter>
					<octave>4</octave>
				</pitch>
				<duration>6</duration>
				<voice>2</voice>
				<type>eighth</type>
				<accidental>sharp</accidental>
				<stem>down</stem>
				<beam number="1">continue</beam>
				<notations>
					<articulations>
						<accent/>
					</articulations>
				</notations>
			</note>
			<note>
				<pitch>
					<step>F</step>
					<octave>4</octave>
				</pitch>
				<duration>6</duration>
				<voice>2</voice>
				<type>eighth</type>
				<accidental>natural</accidental>
				<stem>down</stem>
				<beam number="1">end</beam>
				<notations>
					<articulations>
						<accent/>
					</articulations>
				</notations>
			</note>
			<note>
				<chord/>
				<pitch>
					<step>F</step>
					<alter>1</alter>
					<octave>3</octave>
				</pitch>
				<duration>6</duration>
				<voice>2</voice>
				<type>eighth</type>
				<accidental>sharp</accidental>
				<stem>down</stem>
				<notations>
				</notations>
			</note>
			<note>
				<pitch>
					<step>G</step>
					<octave>4</octave>
				</pitch>
				<duration>6</duration>
				<voice>2</voice>
				<type>eighth</type>
				<accidental>natural</accidental>
				<stem>down</stem>
				<beam number="1">begin</beam>
				<notations>
					<articulations>
						<accent/>
					</articulations>
				</notations>
			</note>
			<note>
				<chord/>
				<pitch>
					<step>G</step>
					<alter>1</alter>
					<octave>3</octave>
				</pitch>
				<duration>6</duration>
				<voice>2</voice>
				<type>eighth</type>
				<accidental>sharp</accidental>
				<stem>down</stem>
				<notations>
				</notations>
			</note>
			<note>
				<pitch>
					<step>B</step>
					<octave>4</octave>
				</pitch>
				<duration>6</duration>
				<voice>2</voice>
				<type>eighth</type>
				<accidental>natural</accidental>
				<stem>down</stem>
				<beam number="1">continue</beam>
				<notations>
					<articulations>
						<accent/>
					</articulations>
				</notations>
			</note>
			<note>
				<pitch>
					<step>B</step>
					<octave>4</octave>
				</pitch>
				<duration>6</duration>
				<voice>2</voice>
				<type>eighth</type>
				<stem>down</stem>
				<beam number="1">continue</beam>
				<notations>
					<articulations>
						<accent/>
					</articulations>
				</notations>
			</note>
			<direction placement="below">
				<direction-type>
					<dynamics default-y="-66">
						<sf/>
					</dynamics>
				</direction-type>
			</direction>
			<note>
				<pitch>
					<step>D</step>
					<octave>5</octave>
				</pitch>
				<duration>6</duration>
				<voice>2</voice>
				<type>eighth</type>
				<stem>down</stem>
				<beam number="1">end</beam>
				<notations>
					<articulations>
						<accent/>
					</articulations>
				</notations>
			</note>
			<note>
				<chord/>
				<pitch>
					<step>A</step>
					<octave>4</octave>
				</pitch>
				<duration>6</duration>
				<voice>2</voice>
				<type>eighth</type>
				<stem>down</stem>
				<notations>
				</notations>
			</note>
		</measure>
<!--===================================================-->
		<measure number = "5">
			<direction placement="below">
				<direction-type>
					<dynamics default-y="-76">
						<ff/>
					</dynamics>
				</direction-type>
			</direction>
			<note>
				<pitch>
					<step>D</step>
					<octave>5</octave>
				</pitch>
				<duration>6</duration>
				<voice>1</voice>
				<type>eighth</type>
				<stem>down</stem>
				<beam number="1">begin</beam>
				<notations>
					<articulations>
						<accent/>
					</articulations>
				</notations>
			</note>
			<note>
				<chord/>
				<pitch>
					<step>A</step>
					<octave>4</octave>
				</pitch>
				<duration>6</duration>
				<voice>1</voice>
				<type>eighth</type>
				<stem>down</stem>
				<notations>
				</notations>
			</note>
			<attributes>
				<clef number = "1">
					<sign>G</sign>
					<line>2</line>
					<clef-octave-change>0</clef-octave-change>
				</clef>
			</attributes>
			<note>
				<pitch>
					<step>F</step>
					<octave>4</octave>
				</pitch>
				<duration>6</duration>
				<voice>1</voice>
				<type>eighth</type>
				<stem>down</stem>
				<beam number="1">continue</beam>
				<notations>
				</notations>
			</note>
			<note>
				<pitch>
					<step>F</step>
					<octave>4</octave>
				</pitch>
				<duration>6</duration>
				<voice>1</voice>
				<type>eighth</type>
				<stem>down</stem>
				<beam number="1">continue</beam>
				<notations>
					<slur type="start" number="1" orientation="over"/>
				</notations>
			</note>
			<note>
				<pitch>
					<step>E</step>
					<octave>5</octave>
				</pitch>
				<duration>6</duration>
				<voice>1</voice>
				<type>eighth</type>
				<accidental>natural</accidental>
				<stem>down</stem>
				<beam number="1">end</beam>
				<notations>
					<articulations>
						<staccato/>
					</articulations>
					<slur type="stop" number="1" orientation="over"/>
				</notations>
			</note>
			<note>
				<rest/>
				<duration>6</duration>
				<voice>1</voice>
				<type>eighth</type>
				<notations>
				</notations>
			</note>
			<attributes>
				<clef number = "1">
					<sign>F</sign>
					<line>4</line>
					<clef-octave-change>0</clef-octave-change>
				</clef>
			</attributes>
			<direction placement="below">
				<direction-type>
					<dynamics default-y="-69">
						<f/>
					</dynamics>
				</direction-type>
				<direction-type>
					<wedge type="diminuendo" number="1" default-y="-71"/>
				</direction-type>
			</direction>
			<note>
				<pitch>
					<step>B</step>
					<alter>-1</alter>
					<octave>3</octave>
				</pitch>
				<duration>6</duration>
				<voice>1</voice>
				<type>eighth</type>
				<accidental>flat</accidental>
				<stem>down</stem>
				<notations>
					<articulations>
						<staccato/>
					</articulations>
				</notations>
			</note>
			<note>
				<chord/>
				<pitch>
					<step>B</step>
					<octave>2</octave>
				</pitch>
				<duration>6</duration>
				<voice>1</voice>
				<type>eighth</type>
				<stem>down</stem>
				<notations>
				</notations>
			</note>
			<note>
				<rest/>
				<duration>6</duration>
				<voice>1</voice>
				<type>eighth</type>
				<notations>
				</notations>
			</note>
			<note>
				<pitch>
					<step>E</step>
					<octave>4</octave>
				</pitch>
				<duration>6</duration>
				<voice>1</voice>
				<type>eighth</type>
				<accidental>natural</accidental>
				<stem>down</stem>
				<notations>
					<articulations>
						<staccato/>
					</articulations>
				</notations>
			</note>
			<note>
				<chord/>
				<pitch>
					<step>G</step>
					<octave>3</octave>
				</pitch>
				<duration>6</duration>
				<voice>1</voice>
				<type>eighth</type>
				<stem>down</stem>
				<notations>
				</notations>
			</note>
			<note>
				<chord/>
				<pitch>
					<step>F</step>
					<octave>3</octave>
				</pitch>
				<duration>6</duration>
				<voice>1</voice>
				<type>eighth</type>
				<stem>down</stem>
				<notations>
				</notations>
			</note>
			<direction placement="below">
				<direction-type>
					<wedge type="stop" number="1" default-y="-71"/>
				</direction-type>
			</direction>
		</measure>
<!--===================================================-->
		<measure number = "6">
			<note>
				<rest/>
				<duration>6</duration>
				<voice>1</voice>
				<type>eighth</type>
				<notations>
				</notations>
			</note>
			<note>
				<pitch>
					<step>D</step>
					<octave>4</octave>
				</pitch>
				<duration>6</duration>
				<voice>1</voice>
				<type>eighth</type>
				<accidental>natural</accidental>
				<stem>down</stem>
				<beam number="1">begin</beam>
				<notations>
					<articulations>
						<staccato/>
					</articulations>
				</notations>
				<lyric number="1">
					<syllabic>single</syllabic>
					<text>mit.</text>
				</lyric>
			</note>
			<note>
				<chord/>
				<pitch>
					<step>B</step>
					<octave>3</octave>
				</pitch>
				<duration>6</duration>
				<voice>1</voice>
				<type>eighth</type>
				<stem>down</stem>
				<notations>
				</notations>
			</note>
			<note>
				<chord/>
				<pitch>
					<step>E</step>
					<octave>3</octave>
				</pitch>
				<duration>6</duration>
				<voice>1</voice>
				<type>eighth</type>
				<stem>down</stem>
				<notations>
				</notations>
			</note>
			<note>
				<pitch>
					<step>C</step>
					<octave>4</octave>
				</pitch>
				<duration>6</duration>
				<voice>1</voice>
				<type>eighth</type>
				<accidental>natural</accidental>
				<stem>down</stem>
				<beam number="1">end</beam>
				<notations>
					<articulations>
						<staccato/>
					</articulations>
				</notations>
			</note>
			<note>
				<chord/>
				<pitch>
					<step>F</step>
					<octave>3</octave>
				</pitch>
				<duration>6</duration>
				<voice>1</voice>
				<type>eighth</type>
				<stem>down</stem>
				<notations>
				</notations>
			</note>
			<note>
				<chord/>
				<pitch>
					<step>C</step>
					<octave>3</octave>
				</pitch>
				<duration>6</duration>
				<voice>1</voice>
				<type>eighth</type>
				<stem>down</stem>
				<notations>
				</notations>
			</note>
			<note>
				<rest/>
				<duration>6</duration>
				<voice>1</voice>
				<type>eighth</type>
				<notations>
				</notations>
			</note>
			<note>
				<rest/>
				<duration>8</duration>
				<voice>1</voice>
				<type>quarter</type>
				<time-modification>
					<actual-notes>3</actual-notes>
					<normal-notes>2</normal-notes>
				</time-modification>
				<notations>
					<tuplet type="start"/>
				</notations>
			</note>
			<note>
				<rest/>
				<duration>8</duration>
				<voice>1</voice>
				<type>quarter</type>
				<time-modification>
					<actual-notes>3</actual-notes>
					<normal-notes>2</normal-notes>
				</time-modification>
				<notations>
				</notations>
			</note>
			<direction placement="below">
				<direction-type>
					<dynamics default-y="-60">
						<p/>
					</dynamics>
				</direction-type>
			</direction>
			<note>
				<pitch>
					<step>C</step>
					<octave>4</octave>
				</pitch>
				<duration>8</duration>
				<voice>1</voice>
				<type>quarter</type>
				<time-modification>
					<actual-notes>3</actual-notes>
					<normal-notes>2</normal-notes>
				</time-modification>
				<stem>down</stem>
				<notations>
					<tuplet type="stop"/>
				</notations>
			</note>
			<note>
				<chord/>
				<pitch>
					<step>B</step>
					<alter>-1</alter>
					<octave>3</octave>
				</pitch>
				<duration>8</duration>
				<voice>1</voice>
				<type>quarter</type>
				<accidental>flat</accidental>
				<time-modification>
					<actual-notes>3</actual-notes>
					<normal-notes>2</normal-notes>
				</time-modification>
				<stem>down</stem>
				<notations>
				</notations>
			</note>
			<note>
				<chord/>
				<pitch>
					<step>D</step>
					<octave>3</octave>
				</pitch>
				<duration>8</duration>
				<voice>1</voice>
				<type>quarter</type>
				<accidental>natural</accidental>
				<time-modification>
					<actual-notes>3</actual-notes>
					<normal-notes>2</normal-notes>
				</time-modification>
				<stem>down</stem>
				<notations>
				</notations>
			</note>
		</measure>
<!--===================================================-->
		<measure number = "7">
			<print new-system="yes"/>
			<note>
				<rest/>
				<duration>6</duration>
				<voice>1</voice>
				<type>eighth</type>
				<notations>
				</notations>
			</note>
			<direction placement="below">
				<direction-type>
					<dynamics default-y="-71">
						<f/>
					</dynamics>
				</direction-type>
				<direction-type>
					<wedge type="crescendo" number="1" default-y="-66"/>
				</direction-type>
			</direction>
			<note>
				<pitch>
					<step>F</step>
					<alter>1</alter>
					<octave>2</octave>
				</pitch>
				<duration>4</duration>
				<voice>1</voice>
				<type>eighth</type>
				<accidental>sharp</accidental>
				<time-modification>
					<actual-notes>3</actual-notes>
					<normal-notes>2</normal-notes>
				</time-modification>
				<stem>up</stem>
				<beam number="1">begin</beam>
				<notations>
					<articulations>
						<staccato/>
					</articulations>
					<tuplet type="start"/>
				</notations>
			</note>
			<note>
				<pitch>
					<step>G</step>
					<octave>3</octave>
				</pitch>
				<duration>4</duration>
				<voice>1</voice>
				<type>eighth</type>
				<time-modification>
					<actual-notes>3</actual-notes>
					<normal-notes>2</normal-notes>
				</time-modification>
				<stem>up</stem>
				<beam number="1">continue</beam>
				<notations>
					<articulations>
						<staccato/>
					</articulations>
				</notations>
			</note>
			<note>
				<chord/>
				<pitch>
					<step>E</step>
					<octave>3</octave>
				</pitch>
				<duration>4</duration>
				<voice>1</voice>
				<type>eighth</type>
				<time-modification>
					<actual-notes>3</actual-notes>
					<normal-notes>2</normal-notes>
				</time-modification>
				<stem>up</stem>
				<notations>
				</notations>
			</note>
			<attributes>
				<clef number = "1">
					<sign>G</sign>
					<line>2</line>
					<clef-octave-change>0</clef-octave-change>
				</clef>
			</attributes>
			<note>
				<pitch>
					<step>G</step>
					<octave>4</octave>
				</pitch>
				<duration>4</duration>
				<voice>1</voice>
				<type>eighth</type>
				<time-modification>
					<actual-notes>3</actual-notes>
					<normal-notes>2</normal-notes>
				</time-modification>
				<stem>up</stem>
				<beam number="1">end</beam>
				<notations>
					<articulations>
						<staccato/>
					</articulations>
					<tuplet type="stop"/>
				</notations>
			</note>
			<direction placement="below">
				<direction-type>
					<wedge type="stop" number="1" default-y="-66"/>
				</direction-type>
			</direction>
			<direction placement="below">
				<direction-type>
					<wedge type="diminuendo" number="1" default-y="-66"/>
				</direction-type>
			</direction>
			<note>
				<pitch>
					<step>C</step>
					<alter>1</alter>
					<octave>5</octave>
				</pitch>
				<duration>6</duration>
				<voice>1</voice>
				<type>eighth</type>
				<accidental>sharp</accidental>
				<stem>down</stem>
				<beam number="1">begin</beam>
				<notations>
					<articulations>
						<staccato/>
					</articulations>
				</notations>
			</note>
			<note>
				<pitch>
					<step>B</step>
					<octave>5</octave>
				</pitch>
				<duration>6</duration>
				<voice>1</voice>
				<type>eighth</type>
				<accidental>natural</accidental>
				<stem>down</stem>
				<beam number="1">end</beam>
				<notations>
				</notations>
			</note>
			<note>
				<chord/>
				<pitch>
					<step>G</step>
					<octave>5</octave>
				</pitch>
				<duration>6</duration>
				<voice>1</voice>
				<type>eighth</type>
				<stem>down</stem>
				<notations>
				</notations>
			</note>
			<note>
				<chord/>
				<pitch>
					<step>D</step>
					<octave>5</octave>
				</pitch>
				<duration>6</duration>
				<voice>1</voice>
				<type>eighth</type>
				<stem>down</stem>
				<notations>
				</notations>
			</note>
			<direction placement="below">
				<direction-type>
					<wedge type="stop" number="1" default-y="-66"/>
				</direction-type>
			</direction>
			<note>
				<rest/>
				<duration>6</duration>
				<voice>1</voice>
				<type>eighth</type>
				<notations>
				</notations>
			</note>
			<direction placement="below">
				<direction-type>
					<dynamics default-y="-70">
						<sf/>
					</dynamics>
				</direction-type>
			</direction>
			<note>
				<pitch>
					<step>F</step>
					<octave>5</octave>
				</pitch>
				<duration>12</duration>
				<voice>1</voice>
				<type>quarter</type>
				<accidental>natural</accidental>
				<stem>down</stem>
				<notations>
					<articulations>
						<staccato/>
					</articulations>
				</notations>
			</note>
			<note>
				<chord/>
				<pitch>
					<step>A</step>
					<octave>4</octave>
				</pitch>
				<duration>12</duration>
				<voice>1</voice>
				<type>quarter</type>
				<stem>down</stem>
				<notations>
				</notations>
			</note>
			<note>
				<chord/>
				<pitch>
					<step>G</step>
					<octave>4</octave>
				</pitch>
				<duration>12</duration>
				<voice>1</voice>
				<type>quarter</type>
				<stem>down</stem>
				<notations>
				</notations>
			</note>
		</measure>
<!--===================================================-->
		<measure number = "8">
			<note>
				<rest/>
				<duration>4</duration>
				<voice>1</voice>
				<type>eighth</type>
				<time-modification>
					<actual-notes>3</actual-notes>
					<normal-notes>2</normal-notes>
				</time-modification>
				<notations>
					<tuplet type="start"/>
				</notations>
			</note>
			<direction placement="below">
				<direction-type>
					<dynamics default-y="-56">
						<f/>
					</dynamics>
				</direction-type>
			</direction>
			<note>
				<pitch>
					<step>D</step>
					<alter>1</alter>
					<octave>6</octave>
				</pitch>
				<duration>4</duration>
				<voice>1</voice>
				<type>eighth</type>
				<accidental>sharp</accidental>
				<time-modification>
					<actual-notes>3</actual-notes>
					<normal-notes>2</normal-notes>
				</time-modification>
				<stem>down</stem>
				<beam number="1">begin</beam>
				<notations>
				</notations>
			</note>
			<note>
				<pitch>
					<step>E</step>
					<octave>5</octave>
				</pitch>
				<duration>4</duration>
				<voice>1</voice>
				<type>eighth</type>
				<accidental>natural</accidental>
				<time-modification>
					<actual-notes>3</actual-notes>
					<normal-notes>2</normal-notes>
				</time-modification>
				<stem>down</stem>
				<beam number="1">end</beam>
				<notations>
					<articulations>
						<staccato/>
					</articulations>
					<tuplet type="stop"/>
				</notations>
			</note>
			<note>
				<rest/>
				<duration>4</duration>
				<voice>1</voice>
				<type>eighth</type>
				<time-modification>
					<actual-notes>3</actual-notes>
					<normal-notes>2</normal-notes>
				</time-modification>
				<notations>
					<tuplet type="start"/>
				</notations>
			</note>
			<note>
				<rest/>
				<duration>4</duration>
				<voice>1</voice>
				<type>eighth</type>
				<time-modification>
					<actual-notes>3</actual-notes>
					<normal-notes>2</normal-notes>
				</time-modification>
				<notations>
				</notations>
			</note>
			<direction placement="below">
				<direction-type>
					<dynamics default-y="-69">
						<sf/>
					</dynamics>
				</direction-type>
			</direction>
			<note>
				<pitch>
					<step>F</step>
					<octave>5</octave>
				</pitch>
				<duration>4</duration>
				<voice>1</voice>
				<type>eighth</type>
				<accidental>natural</accidental>
				<time-modification>
					<actual-notes>3</actual-notes>
					<normal-notes>2</normal-notes>
				</time-modification>
				<stem>down</stem>
				<notations>
					<articulations>
						<staccato/>
					</articulations>
					<tuplet type="stop"/>
				</notations>
			</note>
			<note>
				<chord/>
				<pitch>
					<step>A</step>
					<octave>4</octave>
				</pitch>
				<duration>4</duration>
				<voice>1</voice>
				<type>eighth</type>
				<time-modification>
					<actual-notes>3</actual-notes>
					<normal-notes>2</normal-notes>
				</time-modification>
				<stem>down</stem>
				<notations>
				</notations>
			</note>
			<note>
				<chord/>
				<pitch>
					<step>G</step>
					<octave>4</octave>
				</pitch>
				<duration>4</duration>
				<voice>1</voice>
				<type>eighth</type>
				<time-modification>
					<actual-notes>3</actual-notes>
					<normal-notes>2</normal-notes>
				</time-modification>
				<stem>down</stem>
				<notations>
				</notations>
			</note>
			<note>
				<rest/>
				<duration>6</duration>
				<voice>1</voice>
				<type>eighth</type>
				<notations>
				</notations>
			</note>
			<attributes>
				<clef number = "1">
					<sign>G</sign>
					<line>2</line>
					<clef-octave-change>0</clef-octave-change>
				</clef>
			</attributes>
			<direction placement="below">
				<direction-type>
					<dynamics default-y="-62">
						<sf/>
					</dynamics>
				</direction-type>
			</direction>
			<note>
				<pitch>
					<step>C</step>
					<octave>5</octave>
				</pitch>
				<duration>6</duration>
				<voice>1</voice>
				<type>eighth</type>
				<stem>up</stem>
				<notations>
					<articulations>
						<staccato/>
					</articulations>
				</notations>
			</note>
			<note>
				<chord/>
				<pitch>
					<step>F</step>
					<octave>4</octave>
				</pitch>
				<duration>6</duration>
				<voice>1</voice>
				<type>eighth</type>
				<stem>up</stem>
				<notations>
				</notations>
			</note>
			<note>
				<rest/>
				<duration>4</duration>
				<voice>1</voice>
				<type>eighth</type>
				<time-modification>
					<actual-notes>3</actual-notes>
					<normal-notes>2</normal-notes>
				</time-modification>
				<notations>
					<tuplet type="start"/>
				</notations>
			</note>
			<attributes>
				<clef number = "1">
					<sign>F</sign>
					<line>4</line>
					<clef-octave-change>0</clef-octave-change>
				</clef>
			</attributes>
			<note>
				<rest/>
				<duration>4</duration>
				<voice>1</voice>
				<type>eighth</type>
				<time-modification>
					<actual-notes>3</actual-notes>
					<normal-notes>2</normal-notes>
				</time-modification>
				<notations>
				</notations>
			</note>
			<direction placement="below">
				<direction-type>
					<dynamics default-y="-66">
						<sf/>
					</dynamics>
				</direction-type>
			</direction>
			<note>
				<pitch>
					<step>A</step>
					<octave>3</octave>
				</pitch>
				<duration>4</duration>
				<voice>1</voice>
				<type>eighth</type>
				<accidental>natural</accidental>
				<time-modification>
					<actual-notes>3</actual-notes>
					<normal-notes>2</normal-notes>
				</time-modification>
				<stem>down</stem>
				<notations>
					<articulations>
						<staccato/>
					</articulations>
					<tuplet type="stop"/>
				</notations>
			</note>
			<note>
				<chord/>
				<pitch>
					<step>C</step>
					<octave>3</octave>
				</pitch>
				<duration>4</duration>
				<voice>1</voice>
				<type>eighth</type>
				<time-modification>
					<actual-notes>3</actual-notes>
					<normal-notes>2</normal-notes>
				</time-modification>
				<stem>down</stem>
				<notations>
				</notations>
			</note>
			<note>
				<chord/>
				<pitch>
					<step>B</step>
					<octave>2</octave>
				</pitch>
				<duration>4</duration>
				<voice>1</voice>
				<type>eighth</type>
				<time-modification>
					<actual-notes>3</actual-notes>
					<normal-notes>2</normal-notes>
				</time-modification>
				<stem>down</stem>
				<notations>
				</notations>
			</note>
			<attributes>
				<clef number = "1">
					<sign>G</sign>
					<line>2</line>
					<clef-octave-change>0</clef-octave-change>
				</clef>
			</attributes>
		</measure>
<!--===================================================-->
	</part>

</score-partwise>
